<svg width="30" height="21" viewBox="0 0 30 21" fill="none" xmlns="http://www.w3.org/2000/svg">
<g clip-path="url(#clip0_0_632)">
<path d="M25.7915 0.853125H3.31009C1.97727 0.853125 0.901367 1.92513 0.901367 3.25312V17.6531C0.901367 18.9811 1.97727 20.0531 3.31009 20.0531H25.7915C27.1244 20.0531 28.2003 18.9811 28.2003 17.6531V3.25312C28.2003 1.92513 27.1244 0.853125 25.7915 0.853125Z" fill="url(#paint0_radial_0_632)"/>
<path d="M26.1931 1.25313C27.0763 1.25313 27.7989 1.97313 27.7989 2.85313V18.0531C27.7989 18.9331 27.0763 19.6531 26.1931 19.6531H2.90873C2.02553 19.6531 1.30291 18.9331 1.30291 18.0531V2.85313C1.30291 1.97313 2.02553 1.25313 2.90873 1.25313H26.1931ZM26.1931 0.453125H2.90873C1.5759 0.453125 0.5 1.52513 0.5 2.85313V18.0531C0.5 19.3811 1.5759 20.4531 2.90873 20.4531H26.1931C27.5259 20.4531 28.6018 19.3811 28.6018 18.0531V2.85313C28.6018 1.52513 27.5259 0.453125 26.1931 0.453125Z" fill="#E7E7E7"/>
<path d="M6.07227 10.7331H7.45327L6.76277 9.05312L6.07227 10.7331Z" fill="white"/>
<path d="M16.8875 9.21313V9.98113H19.1195V10.8451H16.8875V11.6931H19.3845L20.5407 10.4371L19.4407 9.21313H16.8875Z" fill="white"/>
<path d="M25.7275 7.49312H22.0662L21.2312 8.39712L20.4524 7.49312H15.7553H15.1772H12.889L12.2225 9.01312L11.5401 7.49312H8.41675V8.19712L8.0715 7.49312H5.42993L2.86865 13.3971H5.92774L6.32116 12.4531H7.1883L7.5737 13.3971H10.978V12.6851L11.2831 13.4131H13.0495L13.3546 12.6851V13.4131H15.1371H20.3319L21.191 12.4931L22.01 13.4131H25.607L22.9574 10.4771L25.7275 7.49312ZM15.1532 12.5571H14.1174V9.23712L12.6481 12.5571H11.7408L10.2715 9.23712V12.5571H8.208L7.8226 11.6131H5.70292L5.3095 12.5571H4.20148L6.01606 8.32512H7.52553L9.25178 12.3331V8.32512H10.9058L12.2386 11.1971L13.459 8.32512H15.1532V12.5571ZM23.7684 12.5731H22.4516L21.1991 11.1731L19.9064 12.5731H15.8838V8.33312H19.9706L21.2232 9.72513L22.5158 8.33312H23.8487L21.8735 10.4531L23.7684 12.5731Z" fill="white"/>
</g>
<defs>
<radialGradient id="paint0_radial_0_632" cx="0" cy="0" r="1" gradientUnits="userSpaceOnUse" gradientTransform="translate(319.578 50.9723) scale(2618.71 2618.71)">
<stop stop-color="#9DD5F6"/>
<stop offset="0.0711" stop-color="#98D3F5"/>
<stop offset="0.1575" stop-color="#89CEF3"/>
<stop offset="0.2516" stop-color="#70C6EF"/>
<stop offset="0.3514" stop-color="#4EBBEA"/>
<stop offset="0.4546" stop-color="#23ADE3"/>
<stop offset="0.5" stop-color="#0DA6E0"/>
<stop offset="1" stop-color="#2E77BC"/>
</radialGradient>
<clipPath id="clip0_0_632">
<rect width="29" height="20" fill="white" transform="translate(0.5 0.453125)"/>
</clipPath>
</defs>
</svg>
