<svg width="30" height="21" viewBox="0 0 30 21" fill="none" xmlns="http://www.w3.org/2000/svg">
<g clip-path="url(#clip0_0_648)">
<path d="M1.63989 1.25312H28.2799V19.6531H1.63989V1.25312Z" fill="white"/>
<path d="M6.78344 14.1329C6.78344 13.8078 6.6144 13.8292 6.45232 13.8257V13.7318C6.5928 13.7387 6.7368 13.7387 6.87752 13.7387C7.0288 13.7387 7.23432 13.7318 7.50096 13.7318C8.43392 13.7318 8.942 14.3568 8.942 14.9968C8.942 15.3547 8.7332 16.2544 7.4576 16.2544C7.27392 16.2544 7.1044 16.2474 6.9352 16.2474C6.77304 16.2474 6.6144 16.251 6.45232 16.2545V16.1606C6.66832 16.1388 6.77312 16.1316 6.78336 15.8858V14.133L6.78344 14.1329ZM7.13664 15.8281C7.13664 16.1064 7.33504 16.1389 7.51144 16.1389C8.29 16.1389 8.5456 15.5497 8.5456 15.0111C8.5456 14.3355 8.11312 13.8476 7.41784 13.8476C7.26984 13.8476 7.20184 13.8582 7.13664 13.8621V15.8281ZM9.06848 16.1606H9.13672C9.23752 16.1606 9.30968 16.1606 9.30968 16.0411V15.0618C9.30968 14.903 9.25568 14.8809 9.12232 14.809V14.7511C9.2916 14.7001 9.4936 14.6319 9.50776 14.621C9.5332 14.6066 9.55464 14.6027 9.57272 14.6027C9.59056 14.6027 9.59808 14.6246 9.59808 14.6536V16.0411C9.59808 16.1606 9.67728 16.1606 9.77816 16.1606H9.83936V16.2546C9.71672 16.2546 9.59056 16.2474 9.46112 16.2474C9.33144 16.2474 9.2016 16.251 9.06848 16.2546V16.1606ZM9.45392 14.0462C9.36008 14.0462 9.27744 13.9596 9.27744 13.8656C9.27744 13.7751 9.36392 13.6918 9.45392 13.6918C9.54728 13.6918 9.63056 13.768 9.63056 13.8656C9.63056 13.9632 9.55096 14.0462 9.45392 14.0462ZM10.1817 15.0834C10.1817 14.9498 10.1418 14.9138 9.97288 14.845V14.7765C10.1277 14.7259 10.2753 14.6789 10.4483 14.6028C10.459 14.6028 10.4696 14.6102 10.4696 14.6389V14.8739C10.6754 14.7259 10.852 14.6027 11.0937 14.6027C11.3996 14.6027 11.5077 14.8269 11.5077 15.1087V16.0411C11.5077 16.1606 11.5869 16.1606 11.6879 16.1606H11.7528V16.2546C11.6264 16.2546 11.5003 16.2474 11.3709 16.2474C11.241 16.2474 11.1112 16.251 10.9817 16.2546V16.1606H11.0463C11.1475 16.1606 11.2191 16.1606 11.2191 16.0411V15.1053C11.2191 14.899 11.0937 14.798 10.8879 14.798C10.7728 14.798 10.589 14.8919 10.4696 14.9716V16.041C10.4696 16.1606 10.5493 16.1606 10.6503 16.1606H10.715V16.2546C10.589 16.2546 10.4627 16.2474 10.333 16.2474C10.2034 16.2474 10.0734 16.251 9.94384 16.2546V16.1606H10.0089C10.1097 16.1606 10.1817 16.1606 10.1817 16.041V15.0834ZM12.0268 15.257C12.0193 15.2897 12.0193 15.3438 12.0268 15.4668C12.048 15.81 12.2684 16.0918 12.5562 16.0918C12.7546 16.0918 12.9098 15.9834 13.043 15.8498L13.0932 15.9006C12.9274 16.1209 12.722 16.3087 12.4268 16.3087C11.8537 16.3087 11.7384 15.752 11.7384 15.521C11.7384 14.8125 12.2139 14.6027 12.466 14.6027C12.758 14.6027 13.0718 14.787 13.0751 15.1701C13.0751 15.192 13.0751 15.2134 13.0718 15.2354L13.0391 15.257H12.0268ZM12.6647 15.1414C12.7546 15.1414 12.7652 15.0943 12.7652 15.051C12.7652 14.8667 12.6535 14.7185 12.4516 14.7185C12.2321 14.7185 12.0807 14.8809 12.0375 15.1414H12.6647ZM13.1581 16.1606H13.2554C13.356 16.1606 13.4281 16.1606 13.4281 16.0411V15.0257C13.4281 14.9137 13.295 14.8919 13.2408 14.863V14.809C13.5038 14.6968 13.6481 14.6027 13.6808 14.6027C13.7022 14.6027 13.7128 14.6137 13.7128 14.6499V14.9751H13.7204C13.8103 14.8343 13.9619 14.6027 14.1814 14.6027C14.2716 14.6027 14.3868 14.6641 14.3868 14.7943C14.3868 14.8919 14.3185 14.979 14.2177 14.979C14.1055 14.979 14.1055 14.8919 13.9796 14.8919C13.9182 14.8919 13.7166 14.9751 13.7166 15.192V16.0411C13.7166 16.1606 13.7886 16.1606 13.8896 16.1606H14.0912V16.2546C13.893 16.251 13.7422 16.2474 13.587 16.2474C13.4393 16.2474 13.2878 16.251 13.1582 16.2546L13.1581 16.1606ZM14.5454 15.752C14.5924 15.9906 14.7363 16.1931 14.9995 16.1931C15.2117 16.1931 15.291 16.063 15.291 15.9366C15.291 15.51 14.5058 15.6474 14.5058 15.0655C14.5058 14.863 14.6681 14.6027 15.0642 14.6027C15.1794 14.6027 15.3342 14.6355 15.4747 14.7078L15.5002 15.0762H15.4172C15.3812 14.8487 15.2553 14.7186 15.0244 14.7186C14.8803 14.7186 14.7435 14.8018 14.7435 14.957C14.7435 15.3802 15.5794 15.2498 15.5794 15.8171C15.5794 16.0555 15.3884 16.3088 14.9595 16.3088C14.8154 16.3088 14.6462 16.2582 14.5202 16.1861L14.4804 15.7703L14.5454 15.752ZM18.833 14.3859H18.7432C18.6746 13.9633 18.3756 13.7932 17.9722 13.7932C17.5575 13.7932 16.9558 14.0714 16.9558 14.9387C16.9558 15.6693 17.475 16.1931 18.0297 16.1931C18.3863 16.1931 18.682 15.9474 18.7541 15.5678L18.8367 15.5894L18.7541 16.117C18.6027 16.2112 18.1955 16.3087 17.9574 16.3087C17.1146 16.3087 16.5814 15.763 16.5814 14.9498C16.5814 14.2088 17.2406 13.6774 17.9469 13.6774C18.2386 13.6774 18.5197 13.7717 18.7971 13.8694L18.833 14.3859ZM18.963 16.1606H19.0313C19.1323 16.1606 19.2046 16.1606 19.2046 16.0411V14.0283C19.2046 13.7932 19.1506 13.786 19.0134 13.7463V13.6885C19.1576 13.6416 19.309 13.5765 19.3846 13.533C19.4238 13.5114 19.453 13.4931 19.4637 13.4931C19.4857 13.4931 19.4929 13.515 19.4929 13.544V16.0411C19.4929 16.1606 19.572 16.1606 19.673 16.1606H19.7338V16.2546C19.6118 16.2546 19.4857 16.2474 19.3558 16.2474C19.2262 16.2474 19.0966 16.251 18.963 16.2546V16.1606ZM21.2766 16.0555C21.2766 16.1209 21.3161 16.1244 21.3772 16.1244C21.4206 16.1244 21.4745 16.1209 21.5214 16.1209V16.1969C21.3664 16.2113 21.0709 16.2873 21.0024 16.3087L20.9843 16.2978V16.0054C20.7683 16.1823 20.6024 16.3087 20.3464 16.3087C20.1518 16.3087 19.9501 16.1823 19.9501 15.879V14.9534C19.9501 14.8595 19.9357 14.769 19.7343 14.7511V14.6823C19.8642 14.6788 20.1518 14.6571 20.1989 14.6571C20.2389 14.6571 20.2389 14.6824 20.2389 14.7619V15.6941C20.2389 15.8027 20.2389 16.1134 20.5521 16.1134C20.6745 16.1134 20.8366 16.0195 20.9878 15.8934V14.9206C20.9878 14.8486 20.815 14.809 20.6856 14.7727V14.7077C21.0094 14.6859 21.2116 14.6571 21.2474 14.6571C21.2766 14.6571 21.2766 14.6823 21.2766 14.7223V16.0555ZM21.9936 14.863C22.1376 14.7402 22.332 14.6027 22.5304 14.6027C22.9486 14.6027 23.2005 14.9682 23.2005 15.3618C23.2005 15.8352 22.8547 16.3087 22.3391 16.3087C22.0726 16.3087 21.9322 16.2219 21.8383 16.1823L21.7305 16.2652L21.655 16.2257C21.687 16.0125 21.7054 15.8027 21.7054 15.5824V14.0283C21.7054 13.7932 21.651 13.786 21.5142 13.7463V13.6885C21.6587 13.6416 21.8096 13.5765 21.8854 13.533C21.925 13.5114 21.9537 13.4931 21.9649 13.4931C21.9863 13.4931 21.9935 13.515 21.9935 13.544L21.9936 14.863ZM21.9936 15.846C21.9936 15.9834 22.1231 16.215 22.3646 16.215C22.7502 16.215 22.9122 15.8352 22.9122 15.5134C22.9122 15.1232 22.617 14.798 22.3359 14.798C22.2022 14.798 22.0908 14.8849 21.9935 14.9682L21.9936 15.846ZM6.44824 18.3559H6.47584C6.54624 18.3559 6.62072 18.3463 6.62072 18.2439V17.2137C6.62072 17.1111 6.54624 17.1014 6.47584 17.1014H6.44824V17.0424C6.5248 17.0424 6.6424 17.0502 6.7388 17.0502C6.83664 17.0502 6.95416 17.0424 7.04632 17.0424V17.1014H7.01872C6.9484 17.1014 6.87376 17.1111 6.87376 17.2137V18.2439C6.87376 18.3463 6.9484 18.3559 7.01872 18.3559H7.04632V18.4152C6.95224 18.4152 6.83432 18.4074 6.73656 18.4074C6.64048 18.4074 6.5248 18.4152 6.44824 18.4152V18.3559Z" fill="#211E1F"/>
<path d="M7.04642 18.4235C6.9517 18.4235 6.83426 18.4156 6.73658 18.4156C6.64074 18.4156 6.52546 18.4235 6.44834 18.4235H6.43994V18.3474H6.47586C6.5469 18.3458 6.61162 18.3401 6.61234 18.2439V17.2137C6.61162 17.1175 6.5469 17.1111 6.47586 17.1098H6.43994V17.0337H6.44834C6.52546 17.0337 6.6429 17.0414 6.73874 17.0414C6.83634 17.0414 6.9537 17.0337 7.04642 17.0337H7.05522V17.1098H7.01898C6.94786 17.1111 6.88274 17.1175 6.88234 17.2137V18.2439C6.88274 18.3401 6.94786 18.3458 7.01898 18.3474H7.05514V18.4234H7.04642V18.4235ZM7.03802 18.4067V18.3647H7.01898C6.94898 18.3647 6.86562 18.3526 6.86522 18.2439V17.2137C6.86562 17.105 6.94898 17.0927 7.01898 17.0927H7.03802V17.051C6.94746 17.051 6.83394 17.0586 6.73882 17.0586C6.64562 17.0586 6.5329 17.0515 6.45706 17.051V17.0927H6.47578C6.5457 17.0927 6.62938 17.105 6.62938 17.2137V18.2439C6.62938 18.3526 6.5457 18.3647 6.47578 18.3647H6.45706V18.4067C6.5329 18.4059 6.6437 18.3988 6.73658 18.3988C6.83202 18.3988 6.94554 18.4062 7.03802 18.4067ZM8.39338 18.0275L8.39738 18.0237V17.2863C8.39738 17.1249 8.28538 17.1015 8.22674 17.1015H8.18346V17.0423C8.27578 17.0423 8.36586 17.0502 8.45794 17.0502C8.53826 17.0502 8.61906 17.0424 8.6993 17.0424V17.1014H8.66994C8.58738 17.1014 8.49522 17.1171 8.49522 17.351V18.2461C8.49522 18.3149 8.49722 18.3835 8.5069 18.4445H8.43226L7.42274 17.3157V18.126C7.42274 18.2971 7.45578 18.3558 7.60698 18.3558H7.64018V18.4152C7.55602 18.4152 7.47186 18.4074 7.38738 18.4074C7.29938 18.4074 7.20914 18.4152 7.12082 18.4152V18.3558H7.14826C7.28354 18.3558 7.32458 18.2637 7.32458 18.1065V17.2782C7.32458 17.1682 7.23418 17.1014 7.14634 17.1014H7.12074V17.0424C7.1953 17.0424 7.2717 17.0502 7.3461 17.0502C7.40498 17.0502 7.46194 17.0424 7.52066 17.0424L8.39338 18.0275Z" fill="#211E1F"/>
<path d="M8.50686 18.4531L8.42606 18.4501L7.43102 17.3379V18.126C7.43342 18.297 7.45934 18.3455 7.60702 18.3474H7.64902V18.4235H7.64022C7.55542 18.4235 7.47102 18.4156 7.38742 18.4156C7.29958 18.4156 7.20958 18.4236 7.12062 18.4236H7.11206V18.3474H7.14822C7.27782 18.3468 7.31478 18.2634 7.31622 18.1066V17.2783C7.31598 17.1736 7.23038 17.1101 7.1463 17.1098H7.11206V17.034H7.12062C7.19558 17.034 7.27238 17.0415 7.3459 17.0415C7.4043 17.0415 7.4611 17.034 7.52718 17.0369L8.38878 18.0097V17.2865C8.38774 17.13 8.28374 17.1112 8.22662 17.1098H8.1747V17.034H8.18342C8.27606 17.034 8.3663 17.0415 8.4579 17.0415C8.53774 17.0415 8.61806 17.034 8.6991 17.034H8.70766V17.1098H8.6699C8.58902 17.1122 8.5059 17.1192 8.50366 17.3511V18.246C8.50366 18.3147 8.50566 18.3834 8.51518 18.443L8.5171 18.4531H8.50686ZM8.43246 18.4358H8.49726C8.48846 18.3767 8.48686 18.3113 8.48686 18.246V17.3511C8.48686 17.1151 8.5855 17.0927 8.6699 17.0927H8.69062V17.051C8.61334 17.0516 8.5359 17.0586 8.45798 17.0586C8.36822 17.0586 8.28094 17.0516 8.19214 17.051L8.19206 17.0927H8.2267C8.28694 17.0927 8.4059 17.1198 8.4059 17.2865L8.40318 18.0296L8.39918 18.0337L8.39262 18.0398L7.52062 17.051C7.46246 17.051 7.40566 17.0586 7.34598 17.0586C7.27398 17.0586 7.20046 17.0516 7.12942 17.051L7.12894 17.0927H7.14638C7.23838 17.0927 7.33294 17.1632 7.33294 17.2783V18.1065C7.33294 18.2637 7.28926 18.3643 7.1483 18.3649L7.12942 18.3643V18.4067C7.21438 18.4059 7.30166 18.3988 7.38742 18.3988C7.46926 18.3988 7.5507 18.406 7.63174 18.4068V18.3649H7.60694C7.4527 18.3643 7.41438 18.297 7.41414 18.126V17.2936L8.43246 18.4358ZM8.38886 18.0236V18.023L8.38726 18.0216L8.38886 18.0236ZM8.99286 17.1406C8.84558 17.1406 8.84006 17.1761 8.81062 17.3195H8.75174C8.7595 17.2646 8.76934 17.2096 8.77526 17.1523C8.78318 17.0973 8.78694 17.0424 8.78694 16.9854H8.83414C8.8499 17.0445 8.89894 17.0424 8.95206 17.0424H9.96342C10.0165 17.0424 10.0654 17.0406 10.0695 16.9814L10.1162 16.9893C10.1086 17.0424 10.1007 17.0955 10.0948 17.1486C10.0913 17.2017 10.0913 17.2549 10.0913 17.3078L10.0322 17.3298C10.0281 17.257 10.0184 17.1406 9.88718 17.1406H9.56558V18.187C9.56558 18.3386 9.6343 18.3559 9.72806 18.3559H9.7655V18.4152C9.68902 18.4152 9.55158 18.4074 9.44598 18.4074C9.32838 18.4074 9.19094 18.4152 9.11438 18.4152V18.3559H9.15174C9.25982 18.3559 9.31446 18.3462 9.31446 18.191V17.1406H8.99286Z" fill="#211E1F"/>
<path d="M9.76587 18.4235C9.68867 18.4235 9.55147 18.4156 9.44611 18.4156C9.32867 18.4156 9.19147 18.4235 9.11451 18.4235H9.10635V18.3474H9.15195C9.25995 18.3449 9.30347 18.3434 9.30595 18.191V17.1491H8.99291V17.1318H9.32283V18.191C9.32283 18.3487 9.25955 18.3646 9.15187 18.3648H9.12307V18.4062C9.20035 18.4058 9.33227 18.3987 9.44603 18.3987C9.54827 18.3987 9.67939 18.4058 9.75683 18.4062V18.3648H9.72819C9.63339 18.3646 9.55715 18.3414 9.55715 18.1869V17.1318H9.88723C10.0188 17.1323 10.036 17.2446 10.0403 17.3175L10.0826 17.3018C10.0826 17.2506 10.0829 17.1991 10.0864 17.1474C10.0921 17.0967 10.0993 17.0466 10.1067 16.9964L10.0767 16.9914C10.0676 17.0486 10.0126 17.0514 9.96315 17.051H8.94203C8.89595 17.051 8.84555 17.0487 8.82795 16.9938H8.79563C8.79539 17.0472 8.79163 17.1005 8.78403 17.1533C8.77835 17.2074 8.76939 17.2593 8.76203 17.3112H8.80403C8.82987 17.1742 8.84667 17.1298 8.99291 17.1318V17.1491C8.84803 17.1517 8.85107 17.1762 8.81915 17.3216L8.81763 17.3282H8.74219L8.74331 17.3181C8.75115 17.263 8.76107 17.2082 8.76691 17.1509C8.77507 17.0963 8.77891 17.0418 8.77891 16.9853V16.9767H8.84107L8.84243 16.9829C8.85587 17.0325 8.89219 17.0328 8.94203 17.0336H9.96339C10.018 17.0328 10.0578 17.032 10.0611 16.9806L10.0619 16.9713L10.0707 16.9732L10.1261 16.982L10.1249 16.9905C10.1167 17.0432 10.1096 17.0961 10.1035 17.1491C10.0995 17.2014 10.0995 17.2546 10.0995 17.3077V17.3138L10.0942 17.316L10.0247 17.3414L10.0242 17.3298C10.019 17.256 10.0112 17.149 9.88739 17.149H9.57443V18.1868C9.57619 18.3352 9.63491 18.3454 9.72827 18.3473H9.77427V18.4234H9.76595L9.76587 18.4235ZM10.1791 18.3558H10.2067C10.2771 18.3558 10.3517 18.3463 10.3517 18.2439V17.2137C10.3517 17.1111 10.2771 17.1014 10.2067 17.1014H10.1791V17.0424C10.2984 17.0424 10.5027 17.0502 10.6671 17.0502C10.8321 17.0502 11.0356 17.0424 11.1688 17.0424C11.1658 17.1427 11.1672 17.2431 11.1732 17.3432L11.114 17.359C11.1047 17.2313 11.0812 17.1291 10.8751 17.1291H10.6028V17.6442H10.8359C10.9535 17.6442 10.9791 17.5774 10.9907 17.471H11.0495C11.0416 17.6223 11.0416 17.774 11.0495 17.9254L10.9907 17.9371C10.9792 17.8192 10.9732 17.7426 10.8378 17.7426H10.6029V18.2006C10.6029 18.3286 10.7161 18.3286 10.8418 18.3286C11.0771 18.3286 11.1808 18.3126 11.2397 18.0888L11.2947 18.1022C11.2685 18.2057 11.2464 18.3101 11.2282 18.4152C11.1026 18.4152 10.877 18.4074 10.7007 18.4074C10.5239 18.4074 10.2909 18.4152 10.1791 18.4152L10.1791 18.3558Z" fill="#211E1F"/>
<path d="M11.2279 18.4235C11.1019 18.4235 10.8766 18.4155 10.7005 18.4155C10.5239 18.4155 10.2909 18.4235 10.1789 18.4235H10.1707V18.3475H10.2064C10.2775 18.3464 10.3419 18.3401 10.3429 18.244V17.2137C10.3419 17.1177 10.2775 17.1113 10.2064 17.1098H10.1707V17.034H10.1789C10.2986 17.034 10.5025 17.0415 10.6669 17.0415C10.8318 17.0415 11.0352 17.034 11.1687 17.034H11.1775L11.1771 17.0428C11.1757 17.0766 11.1751 17.1105 11.1752 17.1443C11.1752 17.2123 11.1771 17.2866 11.1811 17.3427L11.1814 17.3498L11.1748 17.3517L11.1059 17.3697L11.1055 17.3596C11.0939 17.232 11.077 17.1394 10.8751 17.1375H10.6109L10.6107 17.6353H10.8358C10.9486 17.6342 10.9689 17.5762 10.9822 17.4703L10.983 17.4626H11.0581L11.0579 17.4714C11.054 17.5479 11.0519 17.6246 11.0517 17.7013C11.0517 17.7757 11.0541 17.8503 11.0579 17.9252L11.0581 17.9322L11.051 17.9338L10.983 17.9474L10.9822 17.9382C10.9687 17.8182 10.9678 17.7524 10.8375 17.751L10.6109 17.7508V18.2006C10.6111 18.3201 10.7138 18.3194 10.8416 18.3201C11.0776 18.3187 11.1723 18.3073 11.2315 18.0863L11.2334 18.0784L11.2416 18.08L11.3044 18.0962L11.3025 18.1043C11.2772 18.2085 11.2537 18.3124 11.2361 18.4166L11.2345 18.4235H11.2279ZM11.2207 18.4064C11.2384 18.3065 11.2596 18.2072 11.2842 18.1087L11.2454 18.0989C11.1867 18.319 11.073 18.3386 10.8416 18.3371C10.7182 18.3371 10.5944 18.3371 10.5939 18.2006V17.734H10.8375C10.9744 17.7325 10.9884 17.8154 10.9981 17.9274L11.0405 17.9186C11.033 17.7724 11.033 17.6259 11.0405 17.4797L10.9981 17.4796C10.9872 17.582 10.9553 17.654 10.8357 17.6526H10.5939V17.1203H10.8751C11.0791 17.1189 11.1128 17.2245 11.1215 17.3482L11.1639 17.3367C11.1601 17.2727 11.1582 17.2085 11.1581 17.1443C11.1581 17.1106 11.1589 17.0789 11.16 17.051C11.0268 17.0516 10.8283 17.0586 10.6669 17.0586C10.5058 17.0586 10.3075 17.0516 10.1874 17.051V17.0927H10.2064C10.2763 17.0927 10.3598 17.105 10.36 17.2137V18.244C10.3598 18.3523 10.2763 18.3643 10.2064 18.3649H10.1874V18.4063C10.3018 18.4062 10.5282 18.3989 10.7005 18.3989C10.8734 18.3989 11.0942 18.4062 11.2207 18.4063V18.4064ZM11.5591 17.2508C11.5591 17.1074 11.4808 17.1014 11.4198 17.1014H11.3846V17.0422C11.4474 17.0422 11.5687 17.0502 11.6884 17.0502C11.806 17.0502 11.9003 17.0422 12.004 17.0422C12.2508 17.0422 12.4707 17.1093 12.4707 17.3888C12.4707 17.5654 12.3531 17.6736 12.1983 17.7348L12.5335 18.238C12.5883 18.3212 12.6274 18.3444 12.7236 18.3559V18.4152C12.6588 18.4152 12.5961 18.4074 12.5315 18.4074C12.4707 18.4074 12.4078 18.4152 12.3472 18.4152C12.1963 18.2166 12.0667 18.0041 11.9392 17.7778H11.8103V18.1988C11.8103 18.3504 11.8805 18.3559 11.9707 18.3559H12.006V18.4152C11.894 18.4152 11.7807 18.4074 11.6688 18.4074C11.5746 18.4074 11.4824 18.4152 11.3846 18.4152V18.3559H11.4198C11.4926 18.3559 11.5591 18.3229 11.5591 18.2499V17.2507L11.5591 17.2508ZM11.8103 17.707H11.9059C12.1021 17.707 12.2078 17.6323 12.2078 17.4002C12.2078 17.2254 12.0961 17.1132 11.9214 17.1132C11.8626 17.1132 11.8375 17.1194 11.8102 17.1211V17.707H11.8103Z" fill="#211E1F"/>
<path d="M12.7237 18.4235C12.658 18.4235 12.5956 18.4156 12.5311 18.4156C12.4713 18.4156 12.4087 18.4236 12.3404 18.4202C12.19 18.2224 12.0612 18.0112 11.9344 17.7865H11.8185V18.1986C11.8206 18.3466 11.8799 18.3453 11.9705 18.3474H12.0145V18.4236H12.0057C11.8937 18.4236 11.78 18.4156 11.6686 18.4156C11.5749 18.4156 11.483 18.4236 11.3846 18.4236H11.376V18.3474H11.4197C11.4905 18.347 11.5501 18.3162 11.5503 18.25V17.2508C11.5488 17.1112 11.4807 17.112 11.4197 17.11H11.376V17.0338H11.3845C11.4481 17.0338 11.569 17.0415 11.6885 17.0415C11.8055 17.0415 11.8997 17.0338 12.0041 17.0338C12.2512 17.0343 12.4788 17.1027 12.4794 17.3882C12.4794 17.5659 12.3624 17.6768 12.211 17.7386L12.5405 18.2334C12.5953 18.315 12.6294 18.3352 12.7249 18.3474L12.7321 18.3486V18.4236L12.7237 18.4235ZM11.8101 17.7694H11.9441L11.9464 17.7737C12.0741 17.9996 12.2029 18.2118 12.3473 18.4068C12.4071 18.4068 12.4701 18.3987 12.5311 18.3987C12.5937 18.3987 12.6541 18.4055 12.7152 18.4065V18.3634C12.6232 18.3519 12.5801 18.3244 12.5265 18.2427L12.1853 17.7307L12.1949 17.7267C12.3484 17.6662 12.4619 17.5611 12.4621 17.3882C12.4619 17.1154 12.2506 17.0522 12.0041 17.051C11.9007 17.051 11.8065 17.0588 11.6885 17.0588C11.5733 17.0588 11.457 17.0516 11.3929 17.051V17.0927H11.4197C11.4807 17.0929 11.5674 17.103 11.5674 17.2508V18.25C11.5674 18.3289 11.4936 18.3649 11.4197 18.365H11.3929V18.4065C11.4873 18.4062 11.5765 18.3987 11.6686 18.3987C11.7782 18.3987 11.8889 18.4062 11.9973 18.4065V18.365H11.9705C11.8811 18.3649 11.8014 18.3538 11.8014 18.1986V17.7694H11.81H11.8101ZM11.8101 17.7154H11.8014V17.1132L11.8089 17.1126C11.8357 17.1105 11.8622 17.1049 11.9215 17.1049C12.1001 17.1049 12.2162 17.2214 12.2165 17.4006C12.216 17.6354 12.1037 17.7152 11.906 17.7153H11.81L11.8101 17.7154ZM11.906 17.6984C12.1001 17.6968 12.1977 17.6292 12.1998 17.4006C12.1987 17.2288 12.0922 17.1222 11.9214 17.1215C11.8685 17.1215 11.8436 17.1264 11.8185 17.1286V17.6984H11.906ZM14.0548 18.0276L14.0584 18.0238V17.2864C14.0584 17.125 13.9468 17.1015 13.888 17.1015H13.845V17.0424C13.937 17.0424 14.0271 17.0502 14.1194 17.0502C14.1999 17.0502 14.28 17.0424 14.3609 17.0424V17.1015H14.3313C14.2489 17.1015 14.1568 17.1171 14.1568 17.3511V18.2462C14.1568 18.3149 14.1587 18.3836 14.1684 18.4446H14.094L13.0844 17.3158V18.126C13.0844 18.2972 13.1177 18.3559 13.2685 18.3559H13.3019V18.4152C13.2177 18.4152 13.1333 18.4074 13.0491 18.4074C12.9606 18.4074 12.8705 18.4152 12.7824 18.4152V18.3559H12.8096C12.945 18.3559 12.9862 18.2638 12.9862 18.1066V17.2782C12.9862 17.1682 12.8961 17.1014 12.808 17.1014H12.7824V17.0425C12.8566 17.0425 12.9334 17.0502 13.0078 17.0502C13.0662 17.0502 13.1233 17.0425 13.1822 17.0425L14.0548 18.0276Z" fill="#211E1F"/>
<path d="M14.1684 18.453L14.0876 18.4503L13.0926 17.338V18.126C13.0949 18.297 13.1207 18.3456 13.2686 18.3475H13.3102V18.4235H13.3015C13.2167 18.4235 13.1327 18.4155 13.0486 18.4155C12.961 18.4155 12.8705 18.4235 12.7822 18.4235H12.7734V18.3475H12.8094C12.9389 18.347 12.976 18.2634 12.9773 18.106V17.2782C12.9771 17.1734 12.8916 17.11 12.8078 17.1098H12.7734V17.0338H12.7822C12.857 17.0338 12.9338 17.0415 13.0077 17.0415C13.0653 17.0415 13.1222 17.0338 13.188 17.0365L14.0498 18.0098V17.2862C14.0493 17.13 13.9449 17.1106 13.8879 17.1098H13.8361V17.0338H13.8447C13.9374 17.0338 14.0277 17.0415 14.1193 17.0415C14.1993 17.0415 14.2796 17.0338 14.3604 17.0338H14.3689V17.1098H14.3313C14.2504 17.112 14.167 17.1193 14.165 17.3512V18.246C14.165 18.3148 14.1667 18.383 14.1766 18.4434L14.1778 18.453H14.1684ZM14.0939 18.4358H14.1583C14.1498 18.3768 14.1478 18.3114 14.1478 18.246V17.3512C14.148 17.1152 14.2472 17.0934 14.3313 17.0926H14.3518V17.051C14.2748 17.0516 14.1972 17.0587 14.1193 17.0587C14.0293 17.0587 13.9418 17.0516 13.853 17.051V17.0926H13.8879C13.9482 17.0934 14.0671 17.1198 14.0671 17.2862L14.0644 18.0297L14.0606 18.0337L14.0546 18.0401L13.182 17.0511C13.1238 17.0511 13.067 17.0587 13.0077 17.0587C12.9351 17.0587 12.8618 17.0516 12.7905 17.0511V17.0927H12.8078C12.8998 17.0934 12.9944 17.163 12.9944 17.2782V18.106C12.9944 18.2639 12.9501 18.3644 12.8095 18.365L12.7905 18.3648V18.4064C12.8751 18.406 12.9626 18.3989 13.0486 18.3989C13.1309 18.3989 13.2123 18.406 13.2934 18.4064V18.365H13.2686C13.1142 18.3648 13.0756 18.297 13.0753 18.1259V17.2939L14.0939 18.4358ZM14.0498 18.0238V18.0231L14.0482 18.0216L14.0498 18.0238ZM14.6761 18.1339C14.6562 18.2006 14.6326 18.2522 14.6326 18.2872C14.6326 18.3464 14.7151 18.356 14.7796 18.356H14.8014V18.4152C14.7223 18.4105 14.6431 18.4079 14.5638 18.4074C14.4933 18.4074 14.423 18.411 14.3524 18.4153V18.3559H14.3642C14.4406 18.3559 14.5055 18.3108 14.5344 18.2281L14.8485 17.3257C14.8738 17.2529 14.9094 17.1545 14.9213 17.0817C14.9837 17.0602 15.0622 17.0209 15.0994 16.9972C15.1054 16.9952 15.1089 16.9931 15.115 16.9931C15.1209 16.9931 15.1246 16.9931 15.129 16.9993C15.1347 17.0148 15.1404 17.0326 15.1467 17.0483L15.5074 18.077C15.5309 18.1457 15.5542 18.2184 15.5796 18.2775C15.6032 18.3326 15.6446 18.3559 15.7094 18.3559H15.721V18.4153C15.6309 18.4105 15.5407 18.4079 15.4506 18.4075C15.3544 18.4075 15.2562 18.411 15.1562 18.4153V18.3559H15.1779C15.2228 18.3559 15.2995 18.3483 15.2995 18.2991C15.2995 18.2735 15.2818 18.2206 15.2599 18.1574L15.1837 17.9293H14.7386L14.6761 18.134V18.1339ZM14.9622 17.2627H14.9582L14.7758 17.8193H15.1422L14.9622 17.2627Z" fill="#211E1F"/>
<path d="M15.7203 18.4235C15.6321 18.4195 15.5438 18.4155 15.4505 18.4155C15.3543 18.4155 15.2567 18.4195 15.1563 18.4235L15.1475 18.4241V18.3472H15.1777C15.2231 18.3472 15.2905 18.3368 15.2905 18.299C15.2911 18.2766 15.2734 18.2227 15.2518 18.1601L15.1772 17.9377H14.7447L14.6838 18.1364C14.6639 18.2034 14.6404 18.2554 14.6405 18.2874C14.6412 18.3354 14.7145 18.3472 14.7795 18.3472H14.8097V18.424L14.8009 18.4235C14.7224 18.4195 14.6423 18.4155 14.5641 18.4155C14.4938 18.4155 14.4232 18.4195 14.3529 18.4235L14.3438 18.4241V18.3472H14.364C14.437 18.3469 14.4979 18.3054 14.5262 18.2253L14.8402 17.3228C14.8658 17.2498 14.9012 17.1518 14.9181 17.0734C14.9801 17.0513 15.0398 17.023 15.0961 16.989C15.1016 16.9872 15.107 16.9845 15.115 16.9845C15.1193 16.9843 15.1236 16.9853 15.1274 16.9873C15.1312 16.9893 15.1344 16.9923 15.1366 16.996C15.1422 17.0122 15.1484 17.0296 15.1543 17.0456L15.5154 18.0741C15.5386 18.1431 15.562 18.2158 15.5875 18.2738C15.6102 18.3263 15.6463 18.347 15.7093 18.3472H15.7293V18.4241L15.7203 18.4235ZM15.1646 18.4059C15.2618 18.4026 15.3568 18.3987 15.4505 18.3987C15.5415 18.3987 15.6268 18.4026 15.7121 18.4059V18.3649H15.7093C15.6422 18.3653 15.5957 18.3389 15.5717 18.2809C15.5461 18.2212 15.5222 18.1482 15.4993 18.0794L15.1382 17.051C15.1323 17.0354 15.1265 17.0174 15.1214 17.0036C15.1198 17.0017 15.1201 17.0017 15.1185 17.0017H15.115C15.1109 17.0017 15.1086 17.0029 15.1036 17.0042C15.0658 17.029 14.9871 17.0675 14.929 17.083C14.9169 17.1574 14.8817 17.2555 14.8561 17.3284L14.5424 18.231C14.5125 18.3163 14.4437 18.365 14.364 18.3649H14.3609V18.4059C14.4281 18.4026 14.4961 18.3987 14.5641 18.3987C14.6398 18.3987 14.7173 18.4026 14.7921 18.4059V18.3649H14.7795C14.7157 18.3641 14.6265 18.3569 14.6241 18.2874C14.6242 18.2482 14.6483 18.1978 14.6674 18.1314L14.676 18.1341L14.6674 18.1312L14.732 17.921H15.1891L15.2678 18.1546C15.2898 18.2178 15.3077 18.2702 15.3077 18.299C15.3049 18.3594 15.2221 18.3637 15.1777 18.3649H15.1646V18.4059ZM14.7638 17.8277L14.9516 17.2541H14.9622H14.9681L15.1541 17.8277H14.7638ZM14.7873 17.8106H15.1305L14.9599 17.2836L14.7873 17.8106ZM15.8071 17.1406C15.6599 17.1406 15.6542 17.1761 15.6246 17.3195H15.5657C15.5734 17.2646 15.5833 17.2096 15.5895 17.1523C15.5974 17.0973 15.6009 17.0424 15.6009 16.9854H15.6482C15.6639 17.0445 15.7131 17.0424 15.7657 17.0424H16.7778C16.8303 17.0424 16.8793 17.0406 16.8833 16.9814L16.9302 16.9893C16.9228 17.0424 16.915 17.0955 16.909 17.1486C16.9048 17.2017 16.9048 17.2549 16.9048 17.3078L16.8461 17.3297C16.8424 17.257 16.8326 17.1406 16.7012 17.1406H16.3796V18.187C16.3796 18.3386 16.4484 18.3559 16.5422 18.3559H16.5794V18.4152C16.503 18.4152 16.366 18.4074 16.26 18.4074C16.1425 18.4074 16.005 18.4152 15.9286 18.4152V18.3559H15.9657C16.0737 18.3559 16.1288 18.3462 16.1288 18.191V17.1406H15.8071Z" fill="#211E1F"/>
<path d="M16.5796 18.4235C16.5026 18.4235 16.3653 18.4155 16.2601 18.4155C16.1429 18.4155 16.0056 18.4235 15.9287 18.4235H15.9201V18.3474H15.9658C16.0739 18.3448 16.1173 18.3434 16.1201 18.191L16.1197 17.1492H15.8072V17.1318H16.137V18.191C16.137 18.3488 16.0735 18.3643 15.9658 18.3646H15.937V18.4067C16.0146 18.4059 16.1463 18.3988 16.2601 18.3988C16.3625 18.3988 16.4935 18.4059 16.571 18.4067V18.3647H16.5421C16.4478 18.3643 16.3714 18.3415 16.3712 18.187V17.1318H16.7013C16.8329 17.1324 16.8501 17.2446 16.8538 17.3175L16.8966 17.3018C16.8966 17.2506 16.8968 17.1992 16.9006 17.1477C16.906 17.097 16.9133 17.0466 16.9206 16.9965L16.8909 16.9914C16.882 17.0486 16.8266 17.0518 16.7778 17.051H15.7559C15.7097 17.0515 15.6597 17.0488 15.6418 16.9936H15.6098C15.6095 17.0471 15.6055 17.1004 15.5978 17.1534C15.5926 17.2075 15.5829 17.2596 15.5757 17.3113H15.6177C15.6437 17.1742 15.6606 17.1298 15.8072 17.1318V17.1492C15.6618 17.1516 15.6651 17.1763 15.633 17.3217L15.6315 17.3283H15.5559L15.5571 17.3185C15.5653 17.263 15.5751 17.2082 15.5808 17.1513C15.5888 17.0964 15.5926 17.0418 15.5926 16.9854V16.9768H15.6546L15.6562 16.983C15.67 17.0326 15.7057 17.0328 15.7559 17.0337L15.7658 17.0339H16.7778C16.8319 17.0329 16.8714 17.032 16.8749 16.9808L16.8754 16.9714L16.8846 16.9733L16.9402 16.9821L16.9388 16.9906C16.9306 17.0433 16.9234 17.0962 16.9173 17.1492C16.9133 17.2015 16.9133 17.2548 16.9133 17.3078V17.3139L16.9078 17.3161L16.8382 17.3414L16.8379 17.3299C16.8329 17.2561 16.8251 17.1491 16.7013 17.1491H16.3881V18.187C16.3902 18.3353 16.4488 18.3455 16.5421 18.3474H16.588V18.4234H16.5796V18.4235ZM17.0028 18.3558H17.0302C17.101 18.3558 17.1751 18.3463 17.1751 18.2438V17.2137C17.1751 17.1111 17.101 17.1014 17.0303 17.1014H17.0028V17.0424C17.0793 17.0424 17.1968 17.0502 17.2926 17.0502C17.391 17.0502 17.5086 17.0424 17.6009 17.0424V17.1014H17.5733C17.5028 17.1014 17.4281 17.1111 17.4281 17.2137V18.2439C17.4281 18.3463 17.5028 18.3559 17.5733 18.3559H17.6009V18.4151C17.5066 18.4151 17.3889 18.4074 17.2911 18.4074C17.1949 18.4074 17.0793 18.4152 17.0028 18.4152V18.3558Z" fill="#211E1F"/>
<path d="M17.6008 18.4235C17.5061 18.4235 17.3887 18.4155 17.2909 18.4155C17.1951 18.4155 17.0793 18.4235 17.0027 18.4235H16.9941V18.3474H17.0301C17.101 18.3463 17.166 18.3402 17.1663 18.2439V17.2137C17.166 17.1177 17.101 17.1111 17.0301 17.1098H16.9941V17.034H17.0027C17.0793 17.034 17.197 17.0414 17.2925 17.0414C17.3903 17.0414 17.5079 17.034 17.6008 17.034H17.6091V17.1098H17.5733C17.5017 17.1111 17.4373 17.1177 17.4364 17.2137V18.2439C17.4373 18.3402 17.5017 18.3463 17.5733 18.3474H17.6091V18.4234H17.6008V18.4235ZM17.592 18.4063V18.3647H17.5733C17.503 18.3647 17.4198 18.3523 17.4198 18.2439V17.2137C17.4198 17.105 17.503 17.0927 17.5733 17.0927H17.592V17.051C17.5014 17.0515 17.3881 17.0586 17.2925 17.0586C17.1997 17.0586 17.0873 17.0515 17.0113 17.051V17.0927H17.0302C17.0999 17.0927 17.1834 17.105 17.1837 17.2137V18.2439C17.1834 18.3523 17.0999 18.3647 17.0302 18.3647H17.0113V18.4063C17.0869 18.4055 17.1978 18.3988 17.2909 18.3988C17.386 18.3988 17.4995 18.4059 17.5919 18.4063H17.592ZM18.3826 17.013C18.8005 17.013 19.1337 17.2729 19.1337 17.6916C19.1337 18.144 18.8102 18.4446 18.3929 18.4446C17.9768 18.4446 17.6594 18.1614 17.6594 17.7386C17.6594 17.3297 17.9749 17.013 18.3826 17.013ZM18.4122 18.3581C18.7927 18.3581 18.8589 18.0215 18.8589 17.7348C18.8589 17.4474 18.7045 17.0994 18.3789 17.0994C18.0357 17.0994 17.9338 17.4062 17.9338 17.6695C17.9338 18.0215 18.0945 18.3581 18.4122 18.3581Z" fill="#211E1F"/>
<path d="M17.6509 17.7386C17.6517 17.325 17.9709 17.005 18.3827 17.0044V17.0213C17.9798 17.0213 17.6678 17.3339 17.6675 17.7386C17.6684 18.1567 17.9813 18.4357 18.393 18.4358C18.8062 18.4357 19.1251 18.1392 19.1258 17.6912C19.1254 17.2778 18.7972 17.0218 18.3827 17.0213V17.0044C18.8039 17.0046 19.1415 17.2671 19.1424 17.6912C19.142 18.1483 18.8143 18.4522 18.393 18.453C17.9737 18.4522 17.6517 18.1661 17.6509 17.7386V17.7386ZM17.9255 17.6695C17.9261 17.405 18.0291 17.0906 18.3791 17.0906C18.7119 17.0914 18.8674 17.4459 18.8679 17.7348C18.8673 18.0216 18.8 18.3662 18.4126 18.3662V18.3496C18.7854 18.3491 18.8499 18.0216 18.8509 17.7348C18.8509 17.4498 18.6978 17.1084 18.3791 17.108C18.0427 17.1084 17.9431 17.4076 17.9426 17.6695C17.9428 18.0198 18.102 18.3488 18.4126 18.3496V18.3662C18.087 18.3658 17.9261 18.0236 17.9255 17.6694V17.6695ZM20.4551 18.0276L20.4591 18.0238V17.2864C20.4591 17.125 20.3471 17.1015 20.2882 17.1015H20.2458V17.0424C20.3377 17.0424 20.4278 17.0502 20.5197 17.0502C20.6003 17.0502 20.6806 17.0424 20.7612 17.0424V17.1015H20.7316C20.6494 17.1015 20.5571 17.1171 20.5571 17.3511V18.2462C20.5571 18.3149 20.559 18.3836 20.569 18.4446H20.4946L19.4846 17.3158V18.126C19.4846 18.2972 19.5178 18.3559 19.6687 18.3559H19.7023V18.4152C19.6178 18.4152 19.5338 18.4074 19.4494 18.4074C19.3612 18.4074 19.2708 18.4152 19.1826 18.4152V18.3559H19.2102C19.3457 18.3559 19.3863 18.2638 19.3863 18.1066V17.2782C19.3863 17.1682 19.2966 17.1014 19.2081 17.1014H19.1825V17.0425C19.257 17.0425 19.3336 17.0502 19.4079 17.0502C19.4668 17.0502 19.5235 17.0425 19.5826 17.0425L20.4551 18.0276Z" fill="#211E1F"/>
<path d="M20.5689 18.453L20.4878 18.4502L19.493 17.3379V18.1261C19.4951 18.297 19.521 18.3454 19.6683 18.3472H19.7107V18.4236H19.7022C19.6172 18.4236 19.533 18.4156 19.4493 18.4156C19.3613 18.4156 19.2713 18.4236 19.1822 18.4236H19.1741V18.3472H19.21C19.3393 18.3468 19.3764 18.2634 19.378 18.1066V17.2782C19.3778 17.1735 19.2922 17.11 19.2079 17.1098H19.1741V17.034H19.1822C19.2574 17.034 19.3338 17.0415 19.4078 17.0415C19.466 17.0415 19.5226 17.034 19.5889 17.0369L20.4503 18.0098V17.2866C20.4498 17.1301 20.3454 17.1112 20.2879 17.1098H20.2365V17.0341H20.2453C20.3376 17.0341 20.428 17.0416 20.5193 17.0416C20.5998 17.0416 20.6797 17.0341 20.761 17.0341H20.7694V17.1098H20.7314C20.6507 17.1122 20.5673 17.1195 20.5656 17.3512V18.2461C20.5656 18.3148 20.5671 18.3834 20.5766 18.4435L20.5782 18.453H20.5689ZM20.4945 18.4358H20.5586C20.55 18.3768 20.5486 18.3114 20.5486 18.246V17.3512C20.5486 17.1147 20.6474 17.0934 20.7314 17.0926H20.7526V17.051C20.6753 17.0516 20.5978 17.0587 20.5194 17.0587C20.4302 17.0587 20.3424 17.0516 20.2537 17.051V17.0926H20.2881C20.3489 17.0934 20.4671 17.1202 20.4671 17.2866L20.465 18.0297L20.4613 18.0337L20.455 18.0401L19.5824 17.0511C19.5246 17.0511 19.4674 17.0587 19.4078 17.0587C19.3357 17.0587 19.2621 17.0516 19.1907 17.0511V17.0927H19.208C19.3 17.0934 19.3948 17.163 19.3948 17.2782V18.1066C19.3948 18.2638 19.351 18.3644 19.21 18.365L19.1907 18.3648V18.4064C19.2758 18.406 19.3631 18.3989 19.4493 18.3989C19.531 18.3989 19.6122 18.406 19.6937 18.4064V18.365H19.6683C19.5145 18.3648 19.476 18.297 19.476 18.1261V17.2936L20.4944 18.4358H20.4945ZM20.4504 18.0238V18.0231L20.4488 18.0216L20.4504 18.0238ZM21.0761 18.1339C21.0569 18.2006 21.0331 18.2522 21.0331 18.2872C21.0331 18.3464 21.1157 18.356 21.18 18.356H21.2018V18.4152C21.1228 18.4105 21.0436 18.4079 20.9645 18.4074C20.8936 18.4074 20.8234 18.411 20.753 18.4153V18.3559H20.7642C20.841 18.3559 20.906 18.3108 20.935 18.2281L21.249 17.3257C21.2743 17.2529 21.3098 17.1545 21.3213 17.0817C21.3835 17.0594 21.4433 17.0311 21.5 16.9972C21.5056 16.9952 21.5096 16.9931 21.5155 16.9931C21.5214 16.9931 21.525 16.9931 21.529 16.9993C21.535 17.0148 21.5411 17.0326 21.547 17.0483L21.9075 18.077C21.931 18.1457 21.9544 18.2184 21.9802 18.2775C22.0038 18.3326 22.045 18.3559 22.1095 18.3559H22.1215V18.4153C22.0313 18.4105 21.941 18.4079 21.8506 18.4075C21.7526 18.408 21.6545 18.4106 21.5566 18.4153V18.3559H21.5783C21.6231 18.3559 21.7 18.3483 21.7 18.2991C21.7 18.2735 21.6822 18.2206 21.6603 18.1574L21.5842 17.9293H21.139L21.0761 18.134V18.1339ZM21.3627 17.2627H21.3587L21.1762 17.8193H21.5431L21.3627 17.2627Z" fill="#211E1F"/>
<path d="M22.1205 18.4235C22.0323 18.42 21.9442 18.4156 21.8505 18.4156C21.755 18.4156 21.6569 18.42 21.5568 18.4236L21.5481 18.4241V18.3474H21.5778C21.6234 18.3474 21.6911 18.3368 21.6912 18.299C21.6916 18.2766 21.674 18.223 21.6521 18.1601L21.5776 17.9377H21.1448L21.0841 18.1364C21.0646 18.2038 21.0412 18.2554 21.0416 18.2872C21.0416 18.3354 21.115 18.3474 21.1799 18.3474H21.2098V18.4241L21.201 18.4235C21.1226 18.42 21.0424 18.4156 20.9644 18.4156C20.8941 18.4156 20.8236 18.42 20.7529 18.4236L20.7444 18.4241V18.3474H20.7641C20.8373 18.3472 20.8985 18.305 20.927 18.2253L21.2408 17.3228C21.2658 17.2498 21.3011 17.1518 21.3185 17.0737C21.3801 17.0522 21.4589 17.013 21.4969 16.989C21.5021 16.9872 21.5073 16.985 21.5153 16.985C21.5197 16.9845 21.524 16.9854 21.5279 16.9874C21.5317 16.9894 21.5349 16.9925 21.5369 16.9963C21.5427 17.0118 21.5485 17.0296 21.5549 17.0456L21.9155 18.0741C21.9389 18.143 21.9625 18.2157 21.9878 18.2742C22.0109 18.3263 22.0466 18.3469 22.1091 18.3474H22.1295V18.4241L22.1205 18.4235ZM21.5649 18.4062C21.6618 18.4026 21.7573 18.3987 21.8505 18.3987C21.9417 18.3987 22.0273 18.4026 22.1127 18.4059L22.1124 18.3649H22.1092C22.0428 18.365 21.9965 18.3389 21.9721 18.2809C21.9463 18.2212 21.9229 18.1482 21.8995 18.0796L21.5387 17.051C21.5328 17.0354 21.5269 17.0174 21.5221 17.0042C21.5205 17.0017 21.5206 17.0017 21.5191 17.0017H21.5154C21.5113 17.0017 21.5091 17.003 21.5044 17.0044C21.4662 17.0286 21.3876 17.0678 21.3296 17.083C21.3174 17.1574 21.2818 17.2554 21.2565 17.3284L20.9426 18.231C20.9129 18.3163 20.8443 18.365 20.7641 18.3649H20.7613V18.4059C20.8287 18.4026 20.8961 18.3987 20.9644 18.3987C21.0404 18.3987 21.1177 18.4026 21.1932 18.4059V18.3649H21.1798C21.1161 18.3641 21.0266 18.3571 21.0243 18.2872C21.0247 18.2482 21.0491 18.1982 21.068 18.1314L21.076 18.1341L21.068 18.1312L21.1325 17.921H21.5898L21.6684 18.1546C21.69 18.2179 21.7078 18.2702 21.7078 18.299C21.7049 18.3594 21.6227 18.3637 21.5778 18.3649H21.5649L21.5649 18.4062ZM21.1644 17.8275L21.3524 17.2541H21.3626H21.3687L21.5541 17.8275H21.1644ZM21.1879 17.8106H21.5308L21.3603 17.2839L21.1879 17.8106ZM21.3545 17.2651L21.3584 17.2636L21.3544 17.2651H21.3545ZM22.6154 18.2224C22.6154 18.3011 22.6698 18.3246 22.7326 18.3326C22.813 18.3386 22.9013 18.3386 22.9918 18.3286C23.0739 18.3187 23.1446 18.2715 23.1797 18.2224C23.2109 18.179 23.2286 18.124 23.2405 18.0808H23.2973C23.2758 18.1928 23.2483 18.3032 23.2247 18.4152C23.0525 18.4152 22.8797 18.4074 22.7073 18.4074C22.5345 18.4074 22.3623 18.4152 22.1897 18.4152V18.3559H22.2167C22.2877 18.3559 22.3644 18.3463 22.3644 18.2243V17.2137C22.3644 17.1111 22.2876 17.1015 22.2167 17.1015H22.1897V17.0425C22.2933 17.0425 22.3955 17.0502 22.4992 17.0502C22.5995 17.0502 22.6974 17.0425 22.7975 17.0425V17.1015H22.7481C22.6739 17.1015 22.6154 17.1037 22.6154 17.2076V18.2224Z" fill="#211E1F"/>
<path d="M23.2247 18.4235C23.0519 18.4235 22.8794 18.4157 22.7074 18.4157C22.5347 18.4157 22.3622 18.4235 22.1894 18.4235H22.1811V18.3475H22.2167C22.2879 18.3458 22.355 18.341 22.3558 18.2243V17.2134C22.355 17.1178 22.2882 17.1112 22.2167 17.1098H22.1811V17.034H22.1894C22.2937 17.034 22.3958 17.0415 22.4994 17.0415C22.599 17.0415 22.6968 17.034 22.7975 17.034H22.8056V17.1098H22.7483C22.6723 17.112 22.625 17.1085 22.6235 17.2076V18.2225C22.6241 18.2957 22.6719 18.3154 22.7331 18.3241C22.7678 18.3265 22.8041 18.328 22.8419 18.328C22.8899 18.328 22.9398 18.3257 22.9904 18.3202C23.0703 18.3108 23.1391 18.2646 23.1728 18.2177C23.203 18.1757 23.2204 18.1217 23.2321 18.0787L23.2339 18.0722H23.3077L23.3059 18.0826C23.2838 18.195 23.2569 18.305 23.2331 18.4169L23.2315 18.4236L23.2247 18.4235ZM23.2177 18.4064C23.2404 18.2998 23.2661 18.1954 23.2872 18.0891H23.2469C23.2346 18.1319 23.2173 18.1846 23.1864 18.2276C23.1498 18.2786 23.0772 18.3266 22.9922 18.3371C22.9409 18.3424 22.89 18.3451 22.8418 18.3451C22.8039 18.3451 22.7671 18.3434 22.7316 18.3409C22.6678 18.3338 22.606 18.3065 22.6062 18.2225V17.2075C22.6062 17.0983 22.6752 17.0927 22.7483 17.0927H22.7889V17.051C22.6922 17.0515 22.597 17.0587 22.4994 17.0587C22.3978 17.0587 22.2986 17.0515 22.198 17.051V17.0927H22.2167C22.2867 17.0927 22.3724 17.105 22.3724 17.2132V18.2242C22.3724 18.3514 22.2871 18.3647 22.2167 18.3647H22.198V18.4063C22.3675 18.4062 22.537 18.3988 22.7074 18.3988C22.8778 18.3988 23.048 18.4062 23.2177 18.4063V18.4064ZM23.2735 16.9866C23.3917 16.9866 23.4799 17.0777 23.4799 17.1943C23.4799 17.3106 23.3917 17.4007 23.2735 17.4007C23.1554 17.4007 23.067 17.3106 23.067 17.1943C23.067 17.0777 23.1554 16.9866 23.2735 16.9866ZM23.2735 17.3622C23.3658 17.3622 23.4369 17.2831 23.4369 17.1943C23.4369 17.105 23.367 17.0253 23.2735 17.0253C23.1807 17.0253 23.1097 17.105 23.1097 17.1943C23.1097 17.2831 23.1807 17.3622 23.2735 17.3622ZM23.1707 17.3034V17.2932C23.1962 17.2897 23.2008 17.2905 23.2008 17.2746V17.1214C23.2008 17.0998 23.1984 17.0925 23.1717 17.0936V17.0831H23.2773C23.3138 17.0831 23.3471 17.1004 23.3471 17.1381C23.3471 17.1689 23.3267 17.1917 23.2983 17.2005L23.3322 17.2479C23.348 17.2695 23.3658 17.2897 23.3777 17.2967V17.3034H23.3374C23.3182 17.3034 23.3013 17.2626 23.2632 17.208H23.2403V17.2768C23.2403 17.2904 23.2451 17.2896 23.2706 17.2932V17.3034H23.1707ZM23.2403 17.1943H23.2647C23.2914 17.1943 23.3038 17.1741 23.3038 17.1415C23.3038 17.1085 23.2846 17.0969 23.2634 17.0969H23.2403V17.1943ZM6.78344 14.1329C6.78344 13.8078 6.6144 13.8292 6.45232 13.8257V13.7318C6.5928 13.7387 6.7368 13.7387 6.87752 13.7387C7.0288 13.7387 7.23432 13.7318 7.50096 13.7318C8.43392 13.7318 8.942 14.3568 8.942 14.9968C8.942 15.3547 8.7332 16.2544 7.4576 16.2544C7.27392 16.2544 7.1044 16.2474 6.9352 16.2474C6.77304 16.2474 6.6144 16.251 6.45232 16.2545V16.1606C6.66832 16.1388 6.77312 16.1316 6.78336 15.8858V14.133L6.78344 14.1329ZM7.13664 15.8281C7.13664 16.1064 7.33504 16.1389 7.51144 16.1389C8.29 16.1389 8.5456 15.5497 8.5456 15.0111C8.5456 14.3355 8.11312 13.8476 7.41784 13.8476C7.26984 13.8476 7.20184 13.8582 7.13664 13.8621V15.8281ZM9.06848 16.1606H9.13672C9.23752 16.1606 9.30968 16.1606 9.30968 16.0411V15.0618C9.30968 14.903 9.25568 14.8809 9.12232 14.809V14.7511C9.2916 14.7001 9.4936 14.6319 9.50776 14.621C9.5332 14.6066 9.55464 14.6027 9.57272 14.6027C9.59056 14.6027 9.59808 14.6246 9.59808 14.6536V16.0411C9.59808 16.1606 9.67728 16.1606 9.77816 16.1606H9.83936V16.2546C9.71672 16.2546 9.59056 16.2474 9.46112 16.2474C9.33144 16.2474 9.2016 16.251 9.06848 16.2546V16.1606ZM9.45392 14.0462C9.36008 14.0462 9.27744 13.9596 9.27744 13.8656C9.27744 13.7751 9.36392 13.6918 9.45392 13.6918C9.54728 13.6918 9.63056 13.768 9.63056 13.8656C9.63056 13.9632 9.55096 14.0462 9.45392 14.0462ZM10.1817 15.0834C10.1817 14.9498 10.1418 14.9138 9.97288 14.845V14.7765C10.1277 14.7259 10.2753 14.6789 10.4483 14.6028C10.459 14.6028 10.4696 14.6102 10.4696 14.6389V14.8739C10.6754 14.7259 10.852 14.6027 11.0937 14.6027C11.3996 14.6027 11.5077 14.8269 11.5077 15.1087V16.0411C11.5077 16.1606 11.5869 16.1606 11.6879 16.1606H11.7528V16.2546C11.6264 16.2546 11.5003 16.2474 11.3709 16.2474C11.241 16.2474 11.1112 16.251 10.9817 16.2546V16.1606H11.0463C11.1475 16.1606 11.2191 16.1606 11.2191 16.0411V15.1053C11.2191 14.899 11.0937 14.798 10.8879 14.798C10.7728 14.798 10.589 14.8919 10.4696 14.9716V16.041C10.4696 16.1606 10.5493 16.1606 10.6503 16.1606H10.715V16.2546C10.589 16.2546 10.4627 16.2474 10.333 16.2474C10.2034 16.2474 10.0734 16.251 9.94384 16.2546V16.1606H10.0089C10.1097 16.1606 10.1817 16.1606 10.1817 16.041V15.0834ZM12.0268 15.257C12.0193 15.2897 12.0193 15.3438 12.0268 15.4668C12.048 15.81 12.2684 16.0918 12.5562 16.0918C12.7546 16.0918 12.9098 15.9834 13.043 15.8498L13.0932 15.9006C12.9274 16.1209 12.722 16.3087 12.4268 16.3087C11.8537 16.3087 11.7384 15.752 11.7384 15.521C11.7384 14.8125 12.2139 14.6027 12.466 14.6027C12.758 14.6027 13.0718 14.787 13.0751 15.1701C13.0751 15.192 13.0751 15.2134 13.0718 15.2354L13.0391 15.257H12.0268ZM12.6647 15.1414C12.7546 15.1414 12.7652 15.0943 12.7652 15.051C12.7652 14.8667 12.6535 14.7185 12.4516 14.7185C12.2321 14.7185 12.0807 14.8809 12.0375 15.1414H12.6647ZM13.1581 16.1606H13.2554C13.356 16.1606 13.4281 16.1606 13.4281 16.0411V15.0257C13.4281 14.9137 13.295 14.8919 13.2408 14.863V14.809C13.5038 14.6968 13.6481 14.6027 13.6808 14.6027C13.7022 14.6027 13.7128 14.6137 13.7128 14.6499V14.9751H13.7204C13.8103 14.8343 13.9619 14.6027 14.1814 14.6027C14.2716 14.6027 14.3868 14.6641 14.3868 14.7943C14.3868 14.8919 14.3185 14.979 14.2177 14.979C14.1055 14.979 14.1055 14.8919 13.9796 14.8919C13.9182 14.8919 13.7166 14.9751 13.7166 15.192V16.0411C13.7166 16.1606 13.7886 16.1606 13.8896 16.1606H14.0912V16.2546C13.893 16.251 13.7422 16.2474 13.587 16.2474C13.4393 16.2474 13.2878 16.251 13.1582 16.2546L13.1581 16.1606ZM14.5454 15.752C14.5924 15.9906 14.7363 16.1931 14.9995 16.1931C15.2117 16.1931 15.291 16.063 15.291 15.9366C15.291 15.51 14.5058 15.6474 14.5058 15.0655C14.5058 14.863 14.6681 14.6027 15.0642 14.6027C15.1794 14.6027 15.3342 14.6355 15.4747 14.7078L15.5002 15.0762H15.4172C15.3812 14.8487 15.2553 14.7186 15.0244 14.7186C14.8803 14.7186 14.7435 14.8018 14.7435 14.957C14.7435 15.3802 15.5794 15.2498 15.5794 15.8171C15.5794 16.0555 15.3884 16.3088 14.9595 16.3088C14.8154 16.3088 14.6462 16.2582 14.5202 16.1861L14.4804 15.7703L14.5454 15.752ZM18.833 14.3859H18.7432C18.6746 13.9633 18.3756 13.7932 17.9722 13.7932C17.5575 13.7932 16.9558 14.0714 16.9558 14.9387C16.9558 15.6693 17.475 16.1931 18.0297 16.1931C18.3863 16.1931 18.682 15.9474 18.7541 15.5678L18.8367 15.5894L18.7541 16.117C18.6027 16.2112 18.1955 16.3087 17.9574 16.3087C17.1146 16.3087 16.5814 15.763 16.5814 14.9498C16.5814 14.2088 17.2406 13.6774 17.9469 13.6774C18.2386 13.6774 18.5197 13.7717 18.7971 13.8694L18.833 14.3859ZM18.963 16.1606H19.0313C19.1323 16.1606 19.2046 16.1606 19.2046 16.0411V14.0283C19.2046 13.7932 19.1506 13.786 19.0134 13.7463V13.6885C19.1576 13.6416 19.309 13.5765 19.3846 13.533C19.4238 13.5114 19.453 13.4931 19.4637 13.4931C19.4857 13.4931 19.4929 13.515 19.4929 13.544V16.0411C19.4929 16.1606 19.572 16.1606 19.673 16.1606H19.7338V16.2546C19.6118 16.2546 19.4857 16.2474 19.3558 16.2474C19.2262 16.2474 19.0966 16.251 18.963 16.2546V16.1606ZM21.2766 16.0555C21.2766 16.1209 21.3161 16.1244 21.3772 16.1244C21.4206 16.1244 21.4745 16.1209 21.5214 16.1209V16.1969C21.3664 16.2113 21.0709 16.2873 21.0024 16.3087L20.9843 16.2978V16.0054C20.7683 16.1823 20.6024 16.3087 20.3464 16.3087C20.1518 16.3087 19.9501 16.1823 19.9501 15.879V14.9534C19.9501 14.8595 19.9357 14.769 19.7343 14.7511V14.6823C19.8642 14.6788 20.1518 14.6571 20.1989 14.6571C20.2389 14.6571 20.2389 14.6824 20.2389 14.7619V15.6941C20.2389 15.8027 20.2389 16.1134 20.5521 16.1134C20.6745 16.1134 20.8366 16.0195 20.9878 15.8934V14.9206C20.9878 14.8486 20.815 14.809 20.6856 14.7727V14.7077C21.0094 14.6859 21.2116 14.6571 21.2474 14.6571C21.2766 14.6571 21.2766 14.6823 21.2766 14.7223V16.0555ZM21.9936 14.863C22.1376 14.7402 22.332 14.6027 22.5304 14.6027C22.9486 14.6027 23.2005 14.9682 23.2005 15.3618C23.2005 15.8352 22.8547 16.3087 22.3391 16.3087C22.0726 16.3087 21.9322 16.2219 21.8383 16.1823L21.7305 16.2652L21.655 16.2257C21.687 16.0125 21.7054 15.8027 21.7054 15.5824V14.0283C21.7054 13.7932 21.651 13.786 21.5142 13.7463V13.6885C21.6587 13.6416 21.8096 13.5765 21.8854 13.533C21.925 13.5114 21.9537 13.4931 21.9649 13.4931C21.9863 13.4931 21.9935 13.515 21.9935 13.544L21.9936 14.863ZM21.9936 15.846C21.9936 15.9834 22.1231 16.215 22.3646 16.215C22.7502 16.215 22.9122 15.8352 22.9122 15.5134C22.9122 15.1232 22.617 14.798 22.3359 14.798C22.2022 14.798 22.0908 14.8849 21.9935 14.9682L21.9936 15.846ZM6.44824 18.3559H6.47584C6.54624 18.3559 6.62072 18.3463 6.62072 18.2439V17.2137C6.62072 17.1111 6.54624 17.1014 6.47584 17.1014H6.44824V17.0424C6.5248 17.0424 6.6424 17.0502 6.7388 17.0502C6.83664 17.0502 6.95416 17.0424 7.04632 17.0424V17.1014H7.01872C6.9484 17.1014 6.87376 17.1111 6.87376 17.2137V18.2439C6.87376 18.3463 6.9484 18.3559 7.01872 18.3559H7.04632V18.4152C6.95224 18.4152 6.83432 18.4074 6.73656 18.4074C6.64048 18.4074 6.5248 18.4152 6.44824 18.4152V18.3559Z" fill="#211E1F"/>
<path d="M7.04642 18.4235C6.9517 18.4235 6.83426 18.4156 6.73658 18.4156C6.64074 18.4156 6.52546 18.4235 6.44834 18.4235H6.43994V18.3474H6.47586C6.5469 18.3458 6.61162 18.3401 6.61234 18.2439V17.2137C6.61162 17.1175 6.5469 17.1111 6.47586 17.1098H6.43994V17.0337H6.44834C6.52546 17.0337 6.6429 17.0414 6.73874 17.0414C6.83634 17.0414 6.9537 17.0337 7.04642 17.0337H7.05522V17.1098H7.01898C6.94786 17.1111 6.88274 17.1175 6.88234 17.2137V18.2439C6.88274 18.3401 6.94786 18.3458 7.01898 18.3474H7.05514V18.4234H7.04642V18.4235ZM7.03802 18.4067V18.3647H7.01898C6.94898 18.3647 6.86562 18.3526 6.86522 18.2439V17.2137C6.86562 17.105 6.94898 17.0927 7.01898 17.0927H7.03802V17.051C6.94746 17.051 6.83394 17.0586 6.73882 17.0586C6.64562 17.0586 6.5329 17.0515 6.45706 17.051V17.0927H6.47578C6.5457 17.0927 6.62938 17.105 6.62938 17.2137V18.2439C6.62938 18.3526 6.5457 18.3647 6.47578 18.3647H6.45706V18.4067C6.5329 18.4059 6.6437 18.3988 6.73658 18.3988C6.83202 18.3988 6.94554 18.4062 7.03802 18.4067ZM8.39338 18.0275L8.39738 18.0237V17.2863C8.39738 17.1249 8.28538 17.1015 8.22674 17.1015H8.18346V17.0423C8.27578 17.0423 8.36586 17.0502 8.45794 17.0502C8.53826 17.0502 8.61906 17.0424 8.6993 17.0424V17.1014H8.66994C8.58738 17.1014 8.49522 17.1171 8.49522 17.351V18.2461C8.49522 18.3149 8.49722 18.3835 8.5069 18.4445H8.43226L7.42274 17.3157V18.126C7.42274 18.2971 7.45578 18.3558 7.60698 18.3558H7.64018V18.4152C7.55602 18.4152 7.47186 18.4074 7.38738 18.4074C7.29938 18.4074 7.20914 18.4152 7.12082 18.4152V18.3558H7.14826C7.28354 18.3558 7.32458 18.2637 7.32458 18.1065V17.2782C7.32458 17.1682 7.23418 17.1014 7.14634 17.1014H7.12074V17.0424C7.1953 17.0424 7.2717 17.0502 7.3461 17.0502C7.40498 17.0502 7.46194 17.0424 7.52066 17.0424L8.39338 18.0275Z" fill="#211E1F"/>
<path d="M8.50686 18.4531L8.42606 18.4501L7.43102 17.3379V18.126C7.43342 18.297 7.45934 18.3455 7.60702 18.3474H7.64902V18.4235H7.64022C7.55542 18.4235 7.47102 18.4156 7.38742 18.4156C7.29958 18.4156 7.20958 18.4236 7.12062 18.4236H7.11206V18.3474H7.14822C7.27782 18.3468 7.31478 18.2634 7.31622 18.1066V17.2783C7.31598 17.1736 7.23038 17.1101 7.1463 17.1098H7.11206V17.034H7.12062C7.19558 17.034 7.27238 17.0415 7.3459 17.0415C7.4043 17.0415 7.4611 17.034 7.52718 17.0369L8.38878 18.0097V17.2865C8.38774 17.13 8.28374 17.1112 8.22662 17.1098H8.1747V17.034H8.18342C8.27606 17.034 8.3663 17.0415 8.4579 17.0415C8.53774 17.0415 8.61806 17.034 8.6991 17.034H8.70766V17.1098H8.6699C8.58902 17.1122 8.5059 17.1192 8.50366 17.3511V18.246C8.50366 18.3147 8.50566 18.3834 8.51518 18.443L8.5171 18.4531H8.50686ZM8.43246 18.4358H8.49726C8.48846 18.3767 8.48686 18.3113 8.48686 18.246V17.3511C8.48686 17.1151 8.5855 17.0927 8.6699 17.0927H8.69062V17.051C8.61334 17.0516 8.5359 17.0586 8.45798 17.0586C8.36822 17.0586 8.28094 17.0516 8.19214 17.051L8.19206 17.0927H8.2267C8.28694 17.0927 8.4059 17.1198 8.4059 17.2865L8.40318 18.0296L8.39918 18.0337L8.39262 18.0398L7.52062 17.051C7.46246 17.051 7.40566 17.0586 7.34598 17.0586C7.27398 17.0586 7.20046 17.0516 7.12942 17.051L7.12894 17.0927H7.14638C7.23838 17.0927 7.33294 17.1632 7.33294 17.2783V18.1065C7.33294 18.2637 7.28926 18.3643 7.1483 18.3649L7.12942 18.3643V18.4067C7.21438 18.4059 7.30166 18.3988 7.38742 18.3988C7.46926 18.3988 7.5507 18.406 7.63174 18.4068V18.3649H7.60694C7.4527 18.3643 7.41438 18.297 7.41414 18.126V17.2936L8.43246 18.4358ZM8.38886 18.0236V18.023L8.38726 18.0216L8.38886 18.0236ZM8.99286 17.1406C8.84558 17.1406 8.84006 17.1761 8.81062 17.3195H8.75174C8.7595 17.2646 8.76934 17.2096 8.77526 17.1523C8.78318 17.0973 8.78694 17.0424 8.78694 16.9854H8.83414C8.8499 17.0445 8.89894 17.0424 8.95206 17.0424H9.96342C10.0165 17.0424 10.0654 17.0406 10.0695 16.9814L10.1162 16.9893C10.1086 17.0424 10.1007 17.0955 10.0948 17.1486C10.0913 17.2017 10.0913 17.2549 10.0913 17.3078L10.0322 17.3298C10.0281 17.257 10.0184 17.1406 9.88718 17.1406H9.56558V18.187C9.56558 18.3386 9.6343 18.3559 9.72806 18.3559H9.7655V18.4152C9.68902 18.4152 9.55158 18.4074 9.44598 18.4074C9.32838 18.4074 9.19094 18.4152 9.11438 18.4152V18.3559H9.15174C9.25982 18.3559 9.31446 18.3462 9.31446 18.191V17.1406H8.99286Z" fill="#211E1F"/>
<path d="M9.76587 18.4235C9.68867 18.4235 9.55147 18.4156 9.44611 18.4156C9.32867 18.4156 9.19147 18.4235 9.11451 18.4235H9.10635V18.3474H9.15195C9.25995 18.3449 9.30347 18.3434 9.30595 18.191V17.1491H8.99291V17.1318H9.32283V18.191C9.32283 18.3487 9.25955 18.3646 9.15187 18.3648H9.12307V18.4062C9.20035 18.4058 9.33227 18.3987 9.44603 18.3987C9.54827 18.3987 9.67939 18.4058 9.75683 18.4062V18.3648H9.72819C9.63339 18.3646 9.55715 18.3414 9.55715 18.1869V17.1318H9.88723C10.0188 17.1323 10.036 17.2446 10.0403 17.3175L10.0826 17.3018C10.0826 17.2506 10.0829 17.1991 10.0864 17.1474C10.0921 17.0967 10.0993 17.0466 10.1067 16.9964L10.0767 16.9914C10.0676 17.0486 10.0126 17.0514 9.96315 17.051H8.94203C8.89595 17.051 8.84555 17.0487 8.82795 16.9938H8.79563C8.79539 17.0472 8.79163 17.1005 8.78403 17.1533C8.77835 17.2074 8.76939 17.2593 8.76203 17.3112H8.80403C8.82987 17.1742 8.84667 17.1298 8.99291 17.1318V17.1491C8.84803 17.1517 8.85107 17.1762 8.81915 17.3216L8.81763 17.3282H8.74219L8.74331 17.3181C8.75115 17.263 8.76107 17.2082 8.76691 17.1509C8.77507 17.0963 8.77891 17.0418 8.77891 16.9853V16.9767H8.84107L8.84243 16.9829C8.85587 17.0325 8.89219 17.0328 8.94203 17.0336H9.96339C10.018 17.0328 10.0578 17.032 10.0611 16.9806L10.0619 16.9713L10.0707 16.9732L10.1261 16.982L10.1249 16.9905C10.1167 17.0432 10.1096 17.0961 10.1035 17.1491C10.0995 17.2014 10.0995 17.2546 10.0995 17.3077V17.3138L10.0942 17.316L10.0247 17.3414L10.0242 17.3298C10.019 17.256 10.0112 17.149 9.88739 17.149H9.57443V18.1868C9.57619 18.3352 9.63491 18.3454 9.72827 18.3473H9.77427V18.4234H9.76595L9.76587 18.4235ZM10.1791 18.3558H10.2067C10.2771 18.3558 10.3517 18.3463 10.3517 18.2439V17.2137C10.3517 17.1111 10.2771 17.1014 10.2067 17.1014H10.1791V17.0424C10.2984 17.0424 10.5027 17.0502 10.6671 17.0502C10.8321 17.0502 11.0356 17.0424 11.1688 17.0424C11.1658 17.1427 11.1672 17.2431 11.1732 17.3432L11.114 17.359C11.1047 17.2313 11.0812 17.1291 10.8751 17.1291H10.6028V17.6442H10.8359C10.9535 17.6442 10.9791 17.5774 10.9907 17.471H11.0495C11.0416 17.6223 11.0416 17.774 11.0495 17.9254L10.9907 17.9371C10.9792 17.8192 10.9732 17.7426 10.8378 17.7426H10.6029V18.2006C10.6029 18.3286 10.7161 18.3286 10.8418 18.3286C11.0771 18.3286 11.1808 18.3126 11.2397 18.0888L11.2947 18.1022C11.2685 18.2057 11.2464 18.3101 11.2282 18.4152C11.1026 18.4152 10.877 18.4074 10.7007 18.4074C10.5239 18.4074 10.2909 18.4152 10.1791 18.4152L10.1791 18.3558Z" fill="#211E1F"/>
<path d="M11.2279 18.4235C11.1019 18.4235 10.8766 18.4155 10.7005 18.4155C10.5239 18.4155 10.2909 18.4235 10.1789 18.4235H10.1707V18.3475H10.2064C10.2775 18.3464 10.3419 18.3401 10.3429 18.244V17.2137C10.3419 17.1177 10.2775 17.1113 10.2064 17.1098H10.1707V17.034H10.1789C10.2986 17.034 10.5025 17.0415 10.6669 17.0415C10.8318 17.0415 11.0352 17.034 11.1687 17.034H11.1775L11.1771 17.0428C11.1757 17.0766 11.1751 17.1105 11.1752 17.1443C11.1752 17.2123 11.1771 17.2866 11.1811 17.3427L11.1814 17.3498L11.1748 17.3517L11.1059 17.3697L11.1055 17.3596C11.0939 17.232 11.077 17.1394 10.8751 17.1375H10.6109L10.6107 17.6353H10.8358C10.9486 17.6342 10.9689 17.5762 10.9822 17.4703L10.983 17.4626H11.0581L11.0579 17.4714C11.054 17.5479 11.0519 17.6246 11.0517 17.7013C11.0517 17.7757 11.0541 17.8503 11.0579 17.9252L11.0581 17.9322L11.051 17.9338L10.983 17.9474L10.9822 17.9382C10.9687 17.8182 10.9678 17.7524 10.8375 17.751L10.6109 17.7508V18.2006C10.6111 18.3201 10.7138 18.3194 10.8416 18.3201C11.0776 18.3187 11.1723 18.3073 11.2315 18.0863L11.2334 18.0784L11.2416 18.08L11.3044 18.0962L11.3025 18.1043C11.2772 18.2085 11.2537 18.3124 11.2361 18.4166L11.2345 18.4235H11.2279ZM11.2207 18.4064C11.2384 18.3065 11.2596 18.2072 11.2842 18.1087L11.2454 18.0989C11.1867 18.319 11.073 18.3386 10.8416 18.3371C10.7182 18.3371 10.5944 18.3371 10.5939 18.2006V17.734H10.8375C10.9744 17.7325 10.9884 17.8154 10.9981 17.9274L11.0405 17.9186C11.033 17.7724 11.033 17.6259 11.0405 17.4797L10.9981 17.4796C10.9872 17.582 10.9553 17.654 10.8357 17.6526H10.5939V17.1203H10.8751C11.0791 17.1189 11.1128 17.2245 11.1215 17.3482L11.1639 17.3367C11.1601 17.2727 11.1582 17.2085 11.1581 17.1443C11.1581 17.1106 11.1589 17.0789 11.16 17.051C11.0268 17.0516 10.8283 17.0586 10.6669 17.0586C10.5058 17.0586 10.3075 17.0516 10.1874 17.051V17.0927H10.2064C10.2763 17.0927 10.3598 17.105 10.36 17.2137V18.244C10.3598 18.3523 10.2763 18.3643 10.2064 18.3649H10.1874V18.4063C10.3018 18.4062 10.5282 18.3989 10.7005 18.3989C10.8734 18.3989 11.0942 18.4062 11.2207 18.4063V18.4064ZM11.5591 17.2508C11.5591 17.1074 11.4808 17.1014 11.4198 17.1014H11.3846V17.0422C11.4474 17.0422 11.5687 17.0502 11.6884 17.0502C11.806 17.0502 11.9003 17.0422 12.004 17.0422C12.2508 17.0422 12.4707 17.1093 12.4707 17.3888C12.4707 17.5654 12.3531 17.6736 12.1983 17.7348L12.5335 18.238C12.5883 18.3212 12.6274 18.3444 12.7236 18.3559V18.4152C12.6588 18.4152 12.5961 18.4074 12.5315 18.4074C12.4707 18.4074 12.4078 18.4152 12.3472 18.4152C12.1963 18.2166 12.0667 18.0041 11.9392 17.7778H11.8103V18.1988C11.8103 18.3504 11.8805 18.3559 11.9707 18.3559H12.006V18.4152C11.894 18.4152 11.7807 18.4074 11.6688 18.4074C11.5746 18.4074 11.4824 18.4152 11.3846 18.4152V18.3559H11.4198C11.4926 18.3559 11.5591 18.3229 11.5591 18.2499V17.2507L11.5591 17.2508ZM11.8103 17.707H11.9059C12.1021 17.707 12.2078 17.6323 12.2078 17.4002C12.2078 17.2254 12.0961 17.1132 11.9214 17.1132C11.8626 17.1132 11.8375 17.1194 11.8102 17.1211V17.707H11.8103Z" fill="#211E1F"/>
<path d="M12.7237 18.4235C12.658 18.4235 12.5956 18.4156 12.5311 18.4156C12.4713 18.4156 12.4087 18.4236 12.3404 18.4202C12.19 18.2224 12.0612 18.0112 11.9344 17.7865H11.8185V18.1986C11.8206 18.3466 11.8799 18.3453 11.9705 18.3474H12.0145V18.4236H12.0057C11.8937 18.4236 11.78 18.4156 11.6686 18.4156C11.5749 18.4156 11.483 18.4236 11.3846 18.4236H11.376V18.3474H11.4197C11.4905 18.347 11.5501 18.3162 11.5503 18.25V17.2508C11.5488 17.1112 11.4807 17.112 11.4197 17.11H11.376V17.0338H11.3845C11.4481 17.0338 11.569 17.0415 11.6885 17.0415C11.8055 17.0415 11.8997 17.0338 12.0041 17.0338C12.2512 17.0343 12.4788 17.1027 12.4794 17.3882C12.4794 17.5659 12.3624 17.6768 12.211 17.7386L12.5405 18.2334C12.5953 18.315 12.6294 18.3352 12.7249 18.3474L12.7321 18.3486V18.4236L12.7237 18.4235ZM11.8101 17.7694H11.9441L11.9464 17.7737C12.0741 17.9996 12.2029 18.2118 12.3473 18.4068C12.4071 18.4068 12.4701 18.3987 12.5311 18.3987C12.5937 18.3987 12.6541 18.4055 12.7152 18.4065V18.3634C12.6232 18.3519 12.5801 18.3244 12.5265 18.2427L12.1853 17.7307L12.1949 17.7267C12.3484 17.6662 12.4619 17.5611 12.4621 17.3882C12.4619 17.1154 12.2506 17.0522 12.0041 17.051C11.9007 17.051 11.8065 17.0588 11.6885 17.0588C11.5733 17.0588 11.457 17.0516 11.3929 17.051V17.0927H11.4197C11.4807 17.0929 11.5674 17.103 11.5674 17.2508V18.25C11.5674 18.3289 11.4936 18.3649 11.4197 18.365H11.3929V18.4065C11.4873 18.4062 11.5765 18.3987 11.6686 18.3987C11.7782 18.3987 11.8889 18.4062 11.9973 18.4065V18.365H11.9705C11.8811 18.3649 11.8014 18.3538 11.8014 18.1986V17.7694H11.81H11.8101ZM11.8101 17.7154H11.8014V17.1132L11.8089 17.1126C11.8357 17.1105 11.8622 17.1049 11.9215 17.1049C12.1001 17.1049 12.2162 17.2214 12.2165 17.4006C12.216 17.6354 12.1037 17.7152 11.906 17.7153H11.81L11.8101 17.7154ZM11.906 17.6984C12.1001 17.6968 12.1977 17.6292 12.1998 17.4006C12.1987 17.2288 12.0922 17.1222 11.9214 17.1215C11.8685 17.1215 11.8436 17.1264 11.8185 17.1286V17.6984H11.906ZM14.0548 18.0276L14.0584 18.0238V17.2864C14.0584 17.125 13.9468 17.1015 13.888 17.1015H13.845V17.0424C13.937 17.0424 14.0271 17.0502 14.1194 17.0502C14.1999 17.0502 14.28 17.0424 14.3609 17.0424V17.1015H14.3313C14.2489 17.1015 14.1568 17.1171 14.1568 17.3511V18.2462C14.1568 18.3149 14.1587 18.3836 14.1684 18.4446H14.094L13.0844 17.3158V18.126C13.0844 18.2972 13.1177 18.3559 13.2685 18.3559H13.3019V18.4152C13.2177 18.4152 13.1333 18.4074 13.0491 18.4074C12.9606 18.4074 12.8705 18.4152 12.7824 18.4152V18.3559H12.8096C12.945 18.3559 12.9862 18.2638 12.9862 18.1066V17.2782C12.9862 17.1682 12.8961 17.1014 12.808 17.1014H12.7824V17.0425C12.8566 17.0425 12.9334 17.0502 13.0078 17.0502C13.0662 17.0502 13.1233 17.0425 13.1822 17.0425L14.0548 18.0276Z" fill="#211E1F"/>
<path d="M14.1684 18.453L14.0876 18.4503L13.0926 17.338V18.126C13.0949 18.297 13.1207 18.3456 13.2686 18.3475H13.3102V18.4235H13.3015C13.2167 18.4235 13.1327 18.4155 13.0486 18.4155C12.961 18.4155 12.8705 18.4235 12.7822 18.4235H12.7734V18.3475H12.8094C12.9389 18.347 12.976 18.2634 12.9773 18.106V17.2782C12.9771 17.1734 12.8916 17.11 12.8078 17.1098H12.7734V17.0338H12.7822C12.857 17.0338 12.9338 17.0415 13.0077 17.0415C13.0653 17.0415 13.1222 17.0338 13.188 17.0365L14.0498 18.0098V17.2862C14.0493 17.13 13.9449 17.1106 13.8879 17.1098H13.8361V17.0338H13.8447C13.9374 17.0338 14.0277 17.0415 14.1193 17.0415C14.1993 17.0415 14.2796 17.0338 14.3604 17.0338H14.3689V17.1098H14.3313C14.2504 17.112 14.167 17.1193 14.165 17.3512V18.246C14.165 18.3148 14.1667 18.383 14.1766 18.4434L14.1778 18.453H14.1684ZM14.0939 18.4358H14.1583C14.1498 18.3768 14.1478 18.3114 14.1478 18.246V17.3512C14.148 17.1152 14.2472 17.0934 14.3313 17.0926H14.3518V17.051C14.2748 17.0516 14.1972 17.0587 14.1193 17.0587C14.0293 17.0587 13.9418 17.0516 13.853 17.051V17.0926H13.8879C13.9482 17.0934 14.0671 17.1198 14.0671 17.2862L14.0644 18.0297L14.0606 18.0337L14.0546 18.0401L13.182 17.0511C13.1238 17.0511 13.067 17.0587 13.0077 17.0587C12.9351 17.0587 12.8618 17.0516 12.7905 17.0511V17.0927H12.8078C12.8998 17.0934 12.9944 17.163 12.9944 17.2782V18.106C12.9944 18.2639 12.9501 18.3644 12.8095 18.365L12.7905 18.3648V18.4064C12.8751 18.406 12.9626 18.3989 13.0486 18.3989C13.1309 18.3989 13.2123 18.406 13.2934 18.4064V18.365H13.2686C13.1142 18.3648 13.0756 18.297 13.0753 18.1259V17.2939L14.0939 18.4358ZM14.0498 18.0238V18.0231L14.0482 18.0216L14.0498 18.0238ZM14.6761 18.1339C14.6562 18.2006 14.6326 18.2522 14.6326 18.2872C14.6326 18.3464 14.7151 18.356 14.7796 18.356H14.8014V18.4152C14.7223 18.4105 14.6431 18.4079 14.5638 18.4074C14.4933 18.4074 14.423 18.411 14.3524 18.4153V18.3559H14.3642C14.4406 18.3559 14.5055 18.3108 14.5344 18.2281L14.8485 17.3257C14.8738 17.2529 14.9094 17.1545 14.9213 17.0817C14.9837 17.0602 15.0622 17.0209 15.0994 16.9972C15.1054 16.9952 15.1089 16.9931 15.115 16.9931C15.1209 16.9931 15.1246 16.9931 15.129 16.9993C15.1347 17.0148 15.1404 17.0326 15.1467 17.0483L15.5074 18.077C15.5309 18.1457 15.5542 18.2184 15.5796 18.2775C15.6032 18.3326 15.6446 18.3559 15.7094 18.3559H15.721V18.4153C15.6309 18.4105 15.5407 18.4079 15.4506 18.4075C15.3544 18.4075 15.2562 18.411 15.1562 18.4153V18.3559H15.1779C15.2228 18.3559 15.2995 18.3483 15.2995 18.2991C15.2995 18.2735 15.2818 18.2206 15.2599 18.1574L15.1837 17.9293H14.7386L14.6761 18.134V18.1339ZM14.9622 17.2627H14.9582L14.7758 17.8193H15.1422L14.9622 17.2627Z" fill="#211E1F"/>
<path d="M15.7203 18.4235C15.6321 18.4195 15.5438 18.4155 15.4505 18.4155C15.3543 18.4155 15.2567 18.4195 15.1563 18.4235L15.1475 18.4241V18.3472H15.1777C15.2231 18.3472 15.2905 18.3368 15.2905 18.299C15.2911 18.2766 15.2734 18.2227 15.2518 18.1601L15.1772 17.9377H14.7447L14.6838 18.1364C14.6639 18.2034 14.6404 18.2554 14.6405 18.2874C14.6412 18.3354 14.7145 18.3472 14.7795 18.3472H14.8097V18.424L14.8009 18.4235C14.7224 18.4195 14.6423 18.4155 14.5641 18.4155C14.4938 18.4155 14.4232 18.4195 14.3529 18.4235L14.3438 18.4241V18.3472H14.364C14.437 18.3469 14.4979 18.3054 14.5262 18.2253L14.8402 17.3228C14.8658 17.2498 14.9012 17.1518 14.9181 17.0734C14.9801 17.0513 15.0398 17.023 15.0961 16.989C15.1016 16.9872 15.107 16.9845 15.115 16.9845C15.1193 16.9843 15.1236 16.9853 15.1274 16.9873C15.1312 16.9893 15.1344 16.9923 15.1366 16.996C15.1422 17.0122 15.1484 17.0296 15.1543 17.0456L15.5154 18.0741C15.5386 18.1431 15.562 18.2158 15.5875 18.2738C15.6102 18.3263 15.6463 18.347 15.7093 18.3472H15.7293V18.4241L15.7203 18.4235ZM15.1646 18.4059C15.2618 18.4026 15.3568 18.3987 15.4505 18.3987C15.5415 18.3987 15.6268 18.4026 15.7121 18.4059V18.3649H15.7093C15.6422 18.3653 15.5957 18.3389 15.5717 18.2809C15.5461 18.2212 15.5222 18.1482 15.4993 18.0794L15.1382 17.051C15.1323 17.0354 15.1265 17.0174 15.1214 17.0036C15.1198 17.0017 15.1201 17.0017 15.1185 17.0017H15.115C15.1109 17.0017 15.1086 17.0029 15.1036 17.0042C15.0658 17.029 14.9871 17.0675 14.929 17.083C14.9169 17.1574 14.8817 17.2555 14.8561 17.3284L14.5424 18.231C14.5125 18.3163 14.4437 18.365 14.364 18.3649H14.3609V18.4059C14.4281 18.4026 14.4961 18.3987 14.5641 18.3987C14.6398 18.3987 14.7173 18.4026 14.7921 18.4059V18.3649H14.7795C14.7157 18.3641 14.6265 18.3569 14.6241 18.2874C14.6242 18.2482 14.6483 18.1978 14.6674 18.1314L14.676 18.1341L14.6674 18.1312L14.732 17.921H15.1891L15.2678 18.1546C15.2898 18.2178 15.3077 18.2702 15.3077 18.299C15.3049 18.3594 15.2221 18.3637 15.1777 18.3649H15.1646V18.4059ZM14.7638 17.8277L14.9516 17.2541H14.9622H14.9681L15.1541 17.8277H14.7638ZM14.7873 17.8106H15.1305L14.9599 17.2836L14.7873 17.8106ZM15.8071 17.1406C15.6599 17.1406 15.6542 17.1761 15.6246 17.3195H15.5657C15.5734 17.2646 15.5833 17.2096 15.5895 17.1523C15.5974 17.0973 15.6009 17.0424 15.6009 16.9854H15.6482C15.6639 17.0445 15.7131 17.0424 15.7657 17.0424H16.7778C16.8303 17.0424 16.8793 17.0406 16.8833 16.9814L16.9302 16.9893C16.9228 17.0424 16.915 17.0955 16.909 17.1486C16.9048 17.2017 16.9048 17.2549 16.9048 17.3078L16.8461 17.3297C16.8424 17.257 16.8326 17.1406 16.7012 17.1406H16.3796V18.187C16.3796 18.3386 16.4484 18.3559 16.5422 18.3559H16.5794V18.4152C16.503 18.4152 16.366 18.4074 16.26 18.4074C16.1425 18.4074 16.005 18.4152 15.9286 18.4152V18.3559H15.9657C16.0737 18.3559 16.1288 18.3462 16.1288 18.191V17.1406H15.8071Z" fill="#211E1F"/>
<path d="M16.5796 18.4235C16.5026 18.4235 16.3653 18.4155 16.2601 18.4155C16.1429 18.4155 16.0056 18.4235 15.9287 18.4235H15.9201V18.3474H15.9658C16.0739 18.3448 16.1173 18.3434 16.1201 18.191L16.1197 17.1492H15.8072V17.1318H16.137V18.191C16.137 18.3488 16.0735 18.3643 15.9658 18.3646H15.937V18.4067C16.0146 18.4059 16.1463 18.3988 16.2601 18.3988C16.3625 18.3988 16.4935 18.4059 16.571 18.4067V18.3647H16.5421C16.4478 18.3643 16.3714 18.3415 16.3712 18.187V17.1318H16.7013C16.8329 17.1324 16.8501 17.2446 16.8538 17.3175L16.8966 17.3018C16.8966 17.2506 16.8968 17.1992 16.9006 17.1477C16.906 17.097 16.9133 17.0466 16.9206 16.9965L16.8909 16.9914C16.882 17.0486 16.8266 17.0518 16.7778 17.051H15.7559C15.7097 17.0515 15.6597 17.0488 15.6418 16.9936H15.6098C15.6095 17.0471 15.6055 17.1004 15.5978 17.1534C15.5926 17.2075 15.5829 17.2596 15.5757 17.3113H15.6177C15.6437 17.1742 15.6606 17.1298 15.8072 17.1318V17.1492C15.6618 17.1516 15.6651 17.1763 15.633 17.3217L15.6315 17.3283H15.5559L15.5571 17.3185C15.5653 17.263 15.5751 17.2082 15.5808 17.1513C15.5888 17.0964 15.5926 17.0418 15.5926 16.9854V16.9768H15.6546L15.6562 16.983C15.67 17.0326 15.7057 17.0328 15.7559 17.0337L15.7658 17.0339H16.7778C16.8319 17.0329 16.8714 17.032 16.8749 16.9808L16.8754 16.9714L16.8846 16.9733L16.9402 16.9821L16.9388 16.9906C16.9306 17.0433 16.9234 17.0962 16.9173 17.1492C16.9133 17.2015 16.9133 17.2548 16.9133 17.3078V17.3139L16.9078 17.3161L16.8382 17.3414L16.8379 17.3299C16.8329 17.2561 16.8251 17.1491 16.7013 17.1491H16.3881V18.187C16.3902 18.3353 16.4488 18.3455 16.5421 18.3474H16.588V18.4234H16.5796V18.4235ZM17.0028 18.3558H17.0302C17.101 18.3558 17.1751 18.3463 17.1751 18.2438V17.2137C17.1751 17.1111 17.101 17.1014 17.0303 17.1014H17.0028V17.0424C17.0793 17.0424 17.1968 17.0502 17.2926 17.0502C17.391 17.0502 17.5086 17.0424 17.6009 17.0424V17.1014H17.5733C17.5028 17.1014 17.4281 17.1111 17.4281 17.2137V18.2439C17.4281 18.3463 17.5028 18.3559 17.5733 18.3559H17.6009V18.4151C17.5066 18.4151 17.3889 18.4074 17.2911 18.4074C17.1949 18.4074 17.0793 18.4152 17.0028 18.4152V18.3558Z" fill="#211E1F"/>
<path d="M17.6008 18.4235C17.5061 18.4235 17.3887 18.4155 17.2909 18.4155C17.1951 18.4155 17.0793 18.4235 17.0027 18.4235H16.9941V18.3474H17.0301C17.101 18.3463 17.166 18.3402 17.1663 18.2439V17.2137C17.166 17.1177 17.101 17.1111 17.0301 17.1098H16.9941V17.034H17.0027C17.0793 17.034 17.197 17.0414 17.2925 17.0414C17.3903 17.0414 17.5079 17.034 17.6008 17.034H17.6091V17.1098H17.5733C17.5017 17.1111 17.4373 17.1177 17.4364 17.2137V18.2439C17.4373 18.3402 17.5017 18.3463 17.5733 18.3474H17.6091V18.4234H17.6008V18.4235ZM17.592 18.4063V18.3647H17.5733C17.503 18.3647 17.4198 18.3523 17.4198 18.2439V17.2137C17.4198 17.105 17.503 17.0927 17.5733 17.0927H17.592V17.051C17.5014 17.0515 17.3881 17.0586 17.2925 17.0586C17.1997 17.0586 17.0873 17.0515 17.0113 17.051V17.0927H17.0302C17.0999 17.0927 17.1834 17.105 17.1837 17.2137V18.2439C17.1834 18.3523 17.0999 18.3647 17.0302 18.3647H17.0113V18.4063C17.0869 18.4055 17.1978 18.3988 17.2909 18.3988C17.386 18.3988 17.4995 18.4059 17.5919 18.4063H17.592ZM18.3826 17.013C18.8005 17.013 19.1337 17.2729 19.1337 17.6916C19.1337 18.144 18.8102 18.4446 18.3929 18.4446C17.9768 18.4446 17.6594 18.1614 17.6594 17.7386C17.6594 17.3297 17.9749 17.013 18.3826 17.013ZM18.4122 18.3581C18.7927 18.3581 18.8589 18.0215 18.8589 17.7348C18.8589 17.4474 18.7045 17.0994 18.3789 17.0994C18.0357 17.0994 17.9338 17.4062 17.9338 17.6695C17.9338 18.0215 18.0945 18.3581 18.4122 18.3581Z" fill="#211E1F"/>
<path d="M17.6509 17.7386C17.6517 17.325 17.9709 17.005 18.3827 17.0044V17.0213C17.9798 17.0213 17.6678 17.3339 17.6675 17.7386C17.6684 18.1567 17.9813 18.4357 18.393 18.4358C18.8062 18.4357 19.1251 18.1392 19.1258 17.6912C19.1254 17.2778 18.7972 17.0218 18.3827 17.0213V17.0044C18.8039 17.0046 19.1415 17.2671 19.1424 17.6912C19.142 18.1483 18.8143 18.4522 18.393 18.453C17.9737 18.4522 17.6517 18.1661 17.6509 17.7386V17.7386ZM17.9255 17.6695C17.9261 17.405 18.0291 17.0906 18.3791 17.0906C18.7119 17.0914 18.8674 17.4459 18.8679 17.7348C18.8673 18.0216 18.8 18.3662 18.4126 18.3662V18.3496C18.7854 18.3491 18.8499 18.0216 18.8509 17.7348C18.8509 17.4498 18.6978 17.1084 18.3791 17.108C18.0427 17.1084 17.9431 17.4076 17.9426 17.6695C17.9428 18.0198 18.102 18.3488 18.4126 18.3496V18.3662C18.087 18.3658 17.9261 18.0236 17.9255 17.6694V17.6695ZM20.4551 18.0276L20.4591 18.0238V17.2864C20.4591 17.125 20.3471 17.1015 20.2882 17.1015H20.2458V17.0424C20.3377 17.0424 20.4278 17.0502 20.5197 17.0502C20.6003 17.0502 20.6806 17.0424 20.7612 17.0424V17.1015H20.7316C20.6494 17.1015 20.5571 17.1171 20.5571 17.3511V18.2462C20.5571 18.3149 20.559 18.3836 20.569 18.4446H20.4946L19.4846 17.3158V18.126C19.4846 18.2972 19.5178 18.3559 19.6687 18.3559H19.7023V18.4152C19.6178 18.4152 19.5338 18.4074 19.4494 18.4074C19.3612 18.4074 19.2708 18.4152 19.1826 18.4152V18.3559H19.2102C19.3457 18.3559 19.3863 18.2638 19.3863 18.1066V17.2782C19.3863 17.1682 19.2966 17.1014 19.2081 17.1014H19.1825V17.0425C19.257 17.0425 19.3336 17.0502 19.4079 17.0502C19.4668 17.0502 19.5235 17.0425 19.5826 17.0425L20.4551 18.0276Z" fill="#211E1F"/>
<path d="M20.5689 18.453L20.4878 18.4502L19.493 17.3379V18.1261C19.4951 18.297 19.521 18.3454 19.6683 18.3472H19.7107V18.4236H19.7022C19.6172 18.4236 19.533 18.4156 19.4493 18.4156C19.3613 18.4156 19.2713 18.4236 19.1822 18.4236H19.1741V18.3472H19.21C19.3393 18.3468 19.3764 18.2634 19.378 18.1066V17.2782C19.3778 17.1735 19.2922 17.11 19.2079 17.1098H19.1741V17.034H19.1822C19.2574 17.034 19.3338 17.0415 19.4078 17.0415C19.466 17.0415 19.5226 17.034 19.5889 17.0369L20.4503 18.0098V17.2866C20.4498 17.1301 20.3454 17.1112 20.2879 17.1098H20.2365V17.0341H20.2453C20.3376 17.0341 20.428 17.0416 20.5193 17.0416C20.5998 17.0416 20.6797 17.0341 20.761 17.0341H20.7694V17.1098H20.7314C20.6507 17.1122 20.5673 17.1195 20.5656 17.3512V18.2461C20.5656 18.3148 20.5671 18.3834 20.5766 18.4435L20.5782 18.453H20.5689ZM20.4945 18.4358H20.5586C20.55 18.3768 20.5486 18.3114 20.5486 18.246V17.3512C20.5486 17.1147 20.6474 17.0934 20.7314 17.0926H20.7526V17.051C20.6753 17.0516 20.5978 17.0587 20.5194 17.0587C20.4302 17.0587 20.3424 17.0516 20.2537 17.051V17.0926H20.2881C20.3489 17.0934 20.4671 17.1202 20.4671 17.2866L20.465 18.0297L20.4613 18.0337L20.455 18.0401L19.5824 17.0511C19.5246 17.0511 19.4674 17.0587 19.4078 17.0587C19.3357 17.0587 19.2621 17.0516 19.1907 17.0511V17.0927H19.208C19.3 17.0934 19.3948 17.163 19.3948 17.2782V18.1066C19.3948 18.2638 19.351 18.3644 19.21 18.365L19.1907 18.3648V18.4064C19.2758 18.406 19.3631 18.3989 19.4493 18.3989C19.531 18.3989 19.6122 18.406 19.6937 18.4064V18.365H19.6683C19.5145 18.3648 19.476 18.297 19.476 18.1261V17.2936L20.4944 18.4358H20.4945ZM20.4504 18.0238V18.0231L20.4488 18.0216L20.4504 18.0238ZM21.0761 18.1339C21.0569 18.2006 21.0331 18.2522 21.0331 18.2872C21.0331 18.3464 21.1157 18.356 21.18 18.356H21.2018V18.4152C21.1228 18.4105 21.0436 18.4079 20.9645 18.4074C20.8936 18.4074 20.8234 18.411 20.753 18.4153V18.3559H20.7642C20.841 18.3559 20.906 18.3108 20.935 18.2281L21.249 17.3257C21.2743 17.2529 21.3098 17.1545 21.3213 17.0817C21.3835 17.0594 21.4433 17.0311 21.5 16.9972C21.5056 16.9952 21.5096 16.9931 21.5155 16.9931C21.5214 16.9931 21.525 16.9931 21.529 16.9993C21.535 17.0148 21.5411 17.0326 21.547 17.0483L21.9075 18.077C21.931 18.1457 21.9544 18.2184 21.9802 18.2775C22.0038 18.3326 22.045 18.3559 22.1095 18.3559H22.1215V18.4153C22.0313 18.4105 21.941 18.4079 21.8506 18.4075C21.7526 18.408 21.6545 18.4106 21.5566 18.4153V18.3559H21.5783C21.6231 18.3559 21.7 18.3483 21.7 18.2991C21.7 18.2735 21.6822 18.2206 21.6603 18.1574L21.5842 17.9293H21.139L21.0761 18.134V18.1339ZM21.3627 17.2627H21.3587L21.1762 17.8193H21.5431L21.3627 17.2627Z" fill="#211E1F"/>
<path d="M22.1205 18.4235C22.0323 18.42 21.9442 18.4156 21.8505 18.4156C21.755 18.4156 21.6569 18.42 21.5568 18.4236L21.5481 18.4241V18.3474H21.5778C21.6234 18.3474 21.6911 18.3368 21.6912 18.299C21.6916 18.2766 21.674 18.223 21.6521 18.1601L21.5776 17.9377H21.1448L21.0841 18.1364C21.0646 18.2038 21.0412 18.2554 21.0416 18.2872C21.0416 18.3354 21.115 18.3474 21.1799 18.3474H21.2098V18.4241L21.201 18.4235C21.1226 18.42 21.0424 18.4156 20.9644 18.4156C20.8941 18.4156 20.8236 18.42 20.7529 18.4236L20.7444 18.4241V18.3474H20.7641C20.8373 18.3472 20.8985 18.305 20.927 18.2253L21.2408 17.3228C21.2658 17.2498 21.3011 17.1518 21.3185 17.0737C21.3801 17.0522 21.4589 17.013 21.4969 16.989C21.5021 16.9872 21.5073 16.985 21.5153 16.985C21.5197 16.9845 21.524 16.9854 21.5279 16.9874C21.5317 16.9894 21.5349 16.9925 21.5369 16.9963C21.5427 17.0118 21.5485 17.0296 21.5549 17.0456L21.9155 18.0741C21.9389 18.143 21.9625 18.2157 21.9878 18.2742C22.0109 18.3263 22.0466 18.3469 22.1091 18.3474H22.1295V18.4241L22.1205 18.4235ZM21.5649 18.4062C21.6618 18.4026 21.7573 18.3987 21.8505 18.3987C21.9417 18.3987 22.0273 18.4026 22.1127 18.4059L22.1124 18.3649H22.1092C22.0428 18.365 21.9965 18.3389 21.9721 18.2809C21.9463 18.2212 21.9229 18.1482 21.8995 18.0796L21.5387 17.051C21.5328 17.0354 21.5269 17.0174 21.5221 17.0042C21.5205 17.0017 21.5206 17.0017 21.5191 17.0017H21.5154C21.5113 17.0017 21.5091 17.003 21.5044 17.0044C21.4662 17.0286 21.3876 17.0678 21.3296 17.083C21.3174 17.1574 21.2818 17.2554 21.2565 17.3284L20.9426 18.231C20.9129 18.3163 20.8443 18.365 20.7641 18.3649H20.7613V18.4059C20.8287 18.4026 20.8961 18.3987 20.9644 18.3987C21.0404 18.3987 21.1177 18.4026 21.1932 18.4059V18.3649H21.1798C21.1161 18.3641 21.0266 18.3571 21.0243 18.2872C21.0247 18.2482 21.0491 18.1982 21.068 18.1314L21.076 18.1341L21.068 18.1312L21.1325 17.921H21.5898L21.6684 18.1546C21.69 18.2179 21.7078 18.2702 21.7078 18.299C21.7049 18.3594 21.6227 18.3637 21.5778 18.3649H21.5649L21.5649 18.4062ZM21.1644 17.8275L21.3524 17.2541H21.3626H21.3687L21.5541 17.8275H21.1644ZM21.1879 17.8106H21.5308L21.3603 17.2839L21.1879 17.8106ZM21.3545 17.2651L21.3584 17.2636L21.3544 17.2651H21.3545ZM22.6154 18.2224C22.6154 18.3011 22.6698 18.3246 22.7326 18.3326C22.813 18.3386 22.9013 18.3386 22.9918 18.3286C23.0739 18.3187 23.1446 18.2715 23.1797 18.2224C23.2109 18.179 23.2286 18.124 23.2405 18.0808H23.2973C23.2758 18.1928 23.2483 18.3032 23.2247 18.4152C23.0525 18.4152 22.8797 18.4074 22.7073 18.4074C22.5345 18.4074 22.3623 18.4152 22.1897 18.4152V18.3559H22.2167C22.2877 18.3559 22.3644 18.3463 22.3644 18.2243V17.2137C22.3644 17.1111 22.2876 17.1015 22.2167 17.1015H22.1897V17.0425C22.2933 17.0425 22.3955 17.0502 22.4992 17.0502C22.5995 17.0502 22.6974 17.0425 22.7975 17.0425V17.1015H22.7481C22.6739 17.1015 22.6154 17.1037 22.6154 17.2076V18.2224Z" fill="#211E1F"/>
<path d="M23.2248 18.4235C23.052 18.4235 22.8795 18.4157 22.7075 18.4157C22.5348 18.4157 22.3623 18.4235 22.1895 18.4235H22.1812V18.3475H22.2168C22.288 18.3458 22.3551 18.341 22.3559 18.2243V17.2134C22.3551 17.1178 22.2883 17.1112 22.2168 17.1098H22.1812V17.034H22.1895C22.2937 17.034 22.3959 17.0415 22.4994 17.0415C22.599 17.0415 22.6968 17.034 22.7976 17.034H22.8056V17.1098H22.7484C22.6724 17.112 22.6251 17.1085 22.6236 17.2076V18.2225C22.6241 18.2957 22.672 18.3154 22.7332 18.3241C22.7678 18.3265 22.8041 18.328 22.842 18.328C22.89 18.328 22.9398 18.3257 22.9904 18.3202C23.0704 18.3108 23.1392 18.2646 23.1728 18.2177C23.2031 18.1757 23.2204 18.1217 23.2321 18.0787L23.234 18.0722H23.3077L23.306 18.0826C23.2838 18.195 23.2569 18.305 23.2332 18.4169L23.2316 18.4236L23.2248 18.4235ZM23.2177 18.4064C23.2404 18.2998 23.2661 18.1954 23.2872 18.0891H23.2469C23.2347 18.1319 23.2173 18.1846 23.1864 18.2276C23.1499 18.2786 23.0772 18.3266 22.9923 18.3371C22.9409 18.3424 22.89 18.3451 22.8419 18.3451C22.804 18.3451 22.7672 18.3434 22.7316 18.3409C22.6679 18.3338 22.606 18.3065 22.6063 18.2225V17.2075C22.6063 17.0983 22.6752 17.0927 22.7484 17.0927H22.7889V17.051C22.6923 17.0515 22.5971 17.0587 22.4994 17.0587C22.3979 17.0587 22.2986 17.0515 22.198 17.051V17.0927H22.2168C22.2868 17.0927 22.3724 17.105 22.3724 17.2132V18.2242C22.3724 18.3514 22.2872 18.3647 22.2168 18.3647H22.198V18.4063C22.3676 18.4062 22.5371 18.3988 22.7075 18.3988C22.8779 18.3988 23.048 18.4062 23.2177 18.4063V18.4064ZM23.2736 16.9866C23.3917 16.9866 23.48 17.0777 23.48 17.1943C23.48 17.3106 23.3917 17.4007 23.2736 17.4007C23.1554 17.4007 23.0671 17.3106 23.0671 17.1943C23.0671 17.0777 23.1554 16.9866 23.2736 16.9866ZM23.2736 17.3622C23.3659 17.3622 23.4369 17.2831 23.4369 17.1943C23.4369 17.105 23.367 17.0253 23.2736 17.0253C23.1808 17.0253 23.1097 17.105 23.1097 17.1943C23.1097 17.2831 23.1808 17.3622 23.2736 17.3622ZM23.1708 17.3034V17.2932C23.1962 17.2897 23.2008 17.2905 23.2008 17.2746V17.1214C23.2008 17.0998 23.1984 17.0925 23.1717 17.0936V17.0831H23.2773C23.3138 17.0831 23.3472 17.1004 23.3472 17.1381C23.3472 17.1689 23.3268 17.1917 23.2984 17.2005L23.3322 17.2479C23.348 17.2695 23.3659 17.2897 23.3777 17.2967V17.3034H23.3375C23.3182 17.3034 23.3013 17.2626 23.2632 17.208H23.2404V17.2768C23.2404 17.2904 23.2452 17.2896 23.2706 17.2932V17.3034H23.1708ZM23.2404 17.1943H23.2648C23.2914 17.1943 23.3039 17.1741 23.3039 17.1415C23.3039 17.1085 23.2846 17.0969 23.2634 17.0969H23.2404V17.1943Z" fill="#211E1F"/>
<path d="M16.021 13.493C19.0005 13.5074 21.72 11.0501 21.72 8.06073C21.72 4.79169 19.0005 2.532 16.021 2.53312H13.4568C10.4417 2.532 7.95996 4.79233 7.95996 8.06073C7.95996 11.0507 10.4417 13.5074 13.4568 13.493H16.021Z" fill="#0079BE"/>
<path d="M13.4691 2.98608C10.7139 2.98696 8.48135 5.23224 8.48071 8.00337C8.48135 10.7739 10.7139 13.019 13.4691 13.0198C16.225 13.019 18.458 10.7739 18.4583 8.00337C18.4579 5.23216 16.225 2.98696 13.4691 2.98608ZM10.3071 8.00337C10.3097 6.6492 11.1509 5.49457 12.337 5.03569V10.9703C11.1509 10.5117 10.3097 9.3576 10.3071 8.00337ZM14.6007 10.9716V5.03552C15.7874 5.49328 16.6298 6.64864 16.632 8.00345C16.6321 8.64528 16.4381 9.27216 16.0757 9.80185C15.7132 10.3315 15.1991 10.7393 14.6008 10.9717L14.6007 10.9716Z" fill="white"/>
<path d="M16.021 13.493C19.0005 13.5074 21.72 11.0501 21.72 8.06073C21.72 4.79169 19.0005 2.532 16.021 2.53312H13.4568C10.4417 2.532 7.95996 4.79233 7.95996 8.06073C7.95996 11.0507 10.4417 13.5074 13.4568 13.493H16.021Z" fill="#0079BE"/>
<path d="M13.4691 2.98608C10.7139 2.98696 8.48135 5.23224 8.48071 8.00337C8.48135 10.7739 10.7139 13.019 13.4691 13.0198C16.225 13.019 18.458 10.7739 18.4583 8.00337C18.4579 5.23216 16.225 2.98696 13.4691 2.98608ZM10.3071 8.00337C10.3097 6.6492 11.1509 5.49457 12.337 5.03569V10.9703C11.1509 10.5117 10.3097 9.3576 10.3071 8.00337ZM14.6007 10.9716V5.03552C15.7874 5.49328 16.6298 6.64864 16.632 8.00345C16.6321 8.64528 16.4381 9.27216 16.0757 9.80185C15.7132 10.3315 15.1991 10.7393 14.6008 10.9717L14.6007 10.9716Z" fill="white"/>
<path fill-rule="evenodd" clip-rule="evenodd" d="M3.4 0.453125H26.6C27.928 0.453125 29 1.52512 29 2.85312V18.0531C29 19.3811 27.928 20.4531 26.6 20.4531H3.4C2.072 20.4531 1 19.3811 1 18.0531V2.85312C1 1.52512 2.072 0.453125 3.4 0.453125ZM28.2 2.85312C28.2 1.97312 27.48 1.25312 26.6 1.25312H3.4C2.52 1.25312 1.8 1.97312 1.8 2.85312V18.0531C1.8 18.9331 2.52 19.6531 3.4 19.6531H26.6C27.48 19.6531 28.2 18.9331 28.2 18.0531V2.85312Z" fill="#E7E7E7"/>
</g>
<defs>
<clipPath id="clip0_0_648">
<rect width="28" height="20" fill="white" transform="translate(1 0.453125)"/>
</clipPath>
</defs>
</svg>
